<svg width="24" height="24" viewBox="0 0 24 24" fill="none" xmlns="http://www.w3.org/2000/svg">
<g clip-path="url(#clip0_2737_1413)">
<path d="M11 21C10.4477 21 10 20.5523 10 20C10 19.4477 10.4477 19 11 19C11.5523 19 12 19.4477 12 20C12 20.5523 11.5523 21 11 21Z" fill="white"/>
<path d="M3 11C3 10.4477 3.4477 9.99999 4 9.99999C4.5523 9.99999 5 10.4477 5 11C5 11.5523 4.5523 12 4 12C3.4477 12 3 11.5523 3 11Z" fill="white"/>
<path d="M4.0705 14.2679C3.5922 14.5441 3.4284 15.1557 3.7045 15.634C3.9807 16.1123 4.5922 16.2761 5.0705 16C5.5488 15.7238 5.7127 15.1123 5.4366 14.634C5.1604 14.1557 4.5488 13.9918 4.0705 14.2679Z" fill="white"/>
<path d="M6.6324 19.2942C6.1541 19.0181 5.9902 18.4065 6.2664 17.9282C6.5425 17.4499 7.1541 17.286 7.6324 17.5621C8.1107 17.8383 8.2746 18.4499 7.9984 18.9282C7.7223 19.4065 7.1107 19.5703 6.6324 19.2942Z" fill="white"/>
<path d="M5.0731 7.99998C5.5513 8.27612 6.1629 8.11225 6.4391 7.63396C6.7152 7.15566 6.5513 6.54407 6.0731 6.26793C5.5948 5.99179 4.9832 6.15566 4.707 6.63396C4.4309 7.11225 4.5948 7.72384 5.0731 7.99998Z" fill="white"/>
<path d="M15.5 14.75C15.5 14.3358 15.1642 14 14.75 14C14.3358 14 14 14.3358 14 14.75V20.25C14 20.6642 14.3358 21 14.75 21H20.25C20.6642 21 21 20.6642 21 20.25C21 19.8358 20.6642 19.5 20.25 19.5H15.5V14.75Z" fill="white"/>
<path d="M21 12C21 7.02944 16.9706 3 12 3C10.7428 3 9.54395 3.25858 8.45508 3.72559C8.07452 3.88888 7.89836 4.32935 8.06152 4.70996C8.22476 5.09055 8.66528 5.26659 9.0459 5.10352C9.95142 4.71514 10.9498 4.5 12 4.5C16.1421 4.5 19.5 7.85786 19.5 12C19.5 15.1787 17.5224 17.8977 14.7275 18.9893C14.3418 19.1399 14.1513 19.5742 14.3018 19.96C14.4524 20.3457 14.8867 20.5363 15.2725 20.3857C18.6236 19.077 21 15.8172 21 12Z" fill="white"/>
</g>
<defs>
<clipPath id="clip0_2737_1413">
<rect width="24" height="24" fill="white"/>
</clipPath>
</defs>
</svg>
