<svg preserveAspectRatio="xMidYMid meet" width="100%" height="100%" overflow="visible" style="display: block;" viewBox="0 0 18 18" fill="none" xmlns="http://www.w3.org/2000/svg">
<g id="Vector">
<path d="M10 18C10.5523 18 11 17.5523 11 17C11 16.4477 10.5523 16 10 16C9.4477 16 9 16.4477 9 17C9 17.5523 9.4477 18 10 18Z" fill="var(--fill-0, white)"/>
<path d="M18 8C18 7.4477 17.5523 6.99999 17 6.99999C16.4477 6.99999 16 7.4477 16 8C16 8.5523 16.4477 9 17 9C17.5523 9 18 8.5523 18 8Z" fill="var(--fill-0, white)"/>
<path d="M16.9295 11.2679C17.4078 11.5441 17.5716 12.1557 17.2955 12.634C17.0193 13.1123 16.4078 13.2761 15.9295 13C15.4512 12.7238 15.2873 12.1123 15.5634 11.634C15.8396 11.1557 16.4512 10.9918 16.9295 11.2679Z" fill="var(--fill-0, white)"/>
<path d="M14.3676 16.2942C14.8459 16.0181 15.0098 15.4065 14.7336 14.9282C14.4575 14.4499 13.8459 14.286 13.3676 14.5621C12.8893 14.8383 12.7254 15.4499 13.0016 15.9282C13.2777 16.4065 13.8893 16.5703 14.3676 16.2942Z" fill="var(--fill-0, white)"/>
<path d="M15.9269 4.99998C15.4487 5.27612 14.8371 5.11225 14.5609 4.63396C14.2848 4.15566 14.4487 3.54407 14.9269 3.26793C15.4052 2.99179 16.0168 3.15566 16.293 3.63396C16.5691 4.11225 16.4052 4.72384 15.9269 4.99998Z" fill="var(--fill-0, white)"/>
<path d="M5.5 11.75C5.5 11.3358 5.83579 11 6.25 11C6.66421 11 7 11.3358 7 11.75V17.25C7 17.6642 6.66421 18 6.25 18H0.75C0.335786 18 0 17.6642 0 17.25C0 16.8358 0.335786 16.5 0.75 16.5H5.5V11.75Z" fill="var(--fill-0, white)"/>
<path d="M0 9C0 4.02944 4.02944 0 9 0C10.2572 0 11.456 0.258577 12.5449 0.725586C12.9255 0.88888 13.1016 1.32935 12.9385 1.70996C12.7752 2.09055 12.3347 2.26659 11.9541 2.10352C11.0486 1.71514 10.0502 1.5 9 1.5C4.85786 1.5 1.5 4.85786 1.5 9C1.5 12.1787 3.47764 14.8977 6.27246 15.9893C6.6582 16.1399 6.84872 16.5742 6.69824 16.96C6.54758 17.3457 6.11333 17.5363 5.72754 17.3857C2.37644 16.077 0 12.8172 0 9Z" fill="var(--fill-0, white)"/>
</g>
</svg>
