<svg preserveAspectRatio="xMidYMid meet" width="100%" height="100%" overflow="visible" style="display: block;" viewBox="0 0 16 18" fill="none" xmlns="http://www.w3.org/2000/svg">
<path id="Vector" d="M15.25 16.5C15.6642 16.5 16 16.8358 16 17.25C16 17.6642 15.6642 18 15.25 18H0.75C0.335786 18 0 17.6642 0 17.25C0 16.8358 0.335786 16.5 0.75 16.5H15.25ZM7.25 0.75C7.25 0.335786 7.58579 0 8 0C8.41421 0 8.75 0.335786 8.75 0.75V11.4395L11.9697 8.21973C12.2626 7.92683 12.7374 7.92683 13.0303 8.21973C13.3232 8.51262 13.3232 8.98738 13.0303 9.28027L8.53027 13.7803C8.23738 14.0732 7.76262 14.0732 7.46973 13.7803L2.96973 9.28027C2.67683 8.98738 2.67683 8.51262 2.96973 8.21973C3.26262 7.92683 3.73738 7.92683 4.03027 8.21973L7.25 11.4395V0.75Z" fill="var(--fill-0, white)"/>
</svg>
