<svg width="24" height="24" viewBox="0 0 24 24" fill="none" xmlns="http://www.w3.org/2000/svg">
<g clip-path="url(#clip0_2667_1671)">
<path d="M19.25 19.5C19.6642 19.5 20 19.8358 20 20.25C20 20.6642 19.6642 21 19.25 21H4.75C4.33579 21 4 20.6642 4 20.25C4 19.8358 4.33579 19.5 4.75 19.5H19.25ZM11.25 3.75C11.25 3.33579 11.5858 3 12 3C12.4142 3 12.75 3.33579 12.75 3.75V14.4395L15.9697 11.2197C16.2626 10.9268 16.7374 10.9268 17.0303 11.2197C17.3232 11.5126 17.3232 11.9874 17.0303 12.2803L12.5303 16.7803C12.2374 17.0732 11.7626 17.0732 11.4697 16.7803L6.96973 12.2803C6.67683 11.9874 6.67683 11.5126 6.96973 11.2197C7.26262 10.9268 7.73738 10.9268 8.03027 11.2197L11.25 14.4395V3.75Z" fill="white"/>
</g>
<defs>
<clipPath id="clip0_2667_1671">
<rect width="24" height="24" fill="white"/>
</clipPath>
</defs>
</svg>
