<svg width="24" height="24" viewBox="0 0 24 24" fill="none" xmlns="http://www.w3.org/2000/svg">
<g clip-path="url(#clip0_2667_2003)">
<path d="M19.8212 4.8573C19.8212 4.48253 19.5172 4.17859 19.1425 4.17859H11.036V8.35828C11.4438 8.209 11.8838 8.12686 12.3427 8.12683C14.4695 8.12683 16.1785 9.86941 16.1786 11.9999C16.1786 14.1304 14.4696 15.8729 12.3427 15.8729C11.8836 15.8729 11.4439 15.7899 11.036 15.6405V19.8212H19.1425C19.5172 19.8212 19.8212 19.5172 19.8212 19.1425V4.8573ZM4.17859 19.1425C4.17859 19.5172 4.48253 19.8212 4.8573 19.8212H9.53601V14.328C9.53601 14.0315 9.7104 13.7628 9.98132 13.6425C10.2525 13.5222 10.5691 13.5732 10.7889 13.7723C11.203 14.1475 11.7467 14.3729 12.3427 14.3729C13.6241 14.3729 14.6786 13.3191 14.6786 11.9999C14.6785 10.6807 13.6241 9.62683 12.3427 9.62683C11.7468 9.62689 11.2031 9.85323 10.7889 10.2284C10.5691 10.4272 10.2523 10.4775 9.98132 10.3573C9.71043 10.237 9.53601 9.9682 9.53601 9.67175V4.17859H4.8573C4.48254 4.17859 4.17859 4.48254 4.17859 4.8573V19.1425ZM21.3212 19.1425C21.3212 20.3457 20.3457 21.3212 19.1425 21.3212H4.8573C3.65412 21.3212 2.67859 20.3457 2.67859 19.1425V4.8573C2.67859 3.65411 3.65411 2.67859 4.8573 2.67859H19.1425C20.3457 2.67859 21.3212 3.65412 21.3212 4.8573V19.1425Z" fill="white"/>
</g>
<defs>
<clipPath id="clip0_2667_2003">
<rect width="24" height="24" fill="white"/>
</clipPath>
</defs>
</svg>
