<svg preserveAspectRatio="xMidYMid meet" width="100%" height="100%" overflow="visible" style="display: block;" viewBox="0 0 18.6426 18.6426" fill="none" xmlns="http://www.w3.org/2000/svg">
<path id="Vector" d="M17.1426 2.17871C17.1426 1.80394 16.8386 1.5 16.4639 1.5H8.35742V5.67969C8.76522 5.53041 9.20517 5.44827 9.66406 5.44824C11.7909 5.44824 13.4999 7.19082 13.5 9.32129C13.5 11.4518 11.791 13.1943 9.66406 13.1943C9.20504 13.1943 8.76534 13.1113 8.35742 12.9619V17.1426H16.4639C16.8387 17.1426 17.1426 16.8387 17.1426 16.4639V2.17871ZM1.5 16.4639C1.5 16.8386 1.80394 17.1426 2.17871 17.1426H6.85742V11.6494C6.85742 11.3529 7.03181 11.0842 7.30273 10.9639C7.57389 10.8437 7.89053 10.8946 8.11035 11.0938C8.52442 11.469 9.06814 11.6943 9.66406 11.6943C10.9455 11.6943 12 10.6405 12 9.32129C11.9999 8.00211 10.9455 6.94824 9.66406 6.94824C9.06816 6.9483 8.52447 7.17465 8.11035 7.5498C7.89054 7.74864 7.57373 7.79887 7.30273 7.67871C7.03184 7.55837 6.85742 7.28961 6.85742 6.99316V1.5H2.17871C1.80395 1.5 1.5 1.80395 1.5 2.17871V16.4639ZM18.6426 16.4639C18.6426 17.6671 17.6671 18.6426 16.4639 18.6426H2.17871C0.975536 18.6426 0 17.6671 0 16.4639V2.17871C0 0.975526 0.975526 0 2.17871 0H16.4639C17.6671 0 18.6426 0.975536 18.6426 2.17871V16.4639Z" fill="var(--fill-0, white)"/>
</svg>
