<svg preserveAspectRatio="xMidYMid meet" width="100%" height="100%" overflow="visible" style="display: block;" viewBox="0 0 20 20" fill="none" xmlns="http://www.w3.org/2000/svg">
<path id="Vector" d="M18.5 1.75C18.5 1.61192 18.3881 1.5 18.25 1.5H7.75C7.61193 1.5 7.5 1.61193 7.5 1.75V6.75C7.5 7.16421 7.16421 7.5 6.75 7.5H1.75C1.61193 7.5 1.5 7.61193 1.5 7.75V18.25C1.5 18.3881 1.61192 18.5 1.75 18.5H12.25C12.3881 18.5 12.5 18.3881 12.5 18.25V13.25C12.5 12.8358 12.8358 12.5 13.25 12.5H18.25C18.3881 12.5 18.5 12.3881 18.5 12.25V1.75ZM6 12.25V10.75C6 10.3358 6.33579 10 6.75 10C7.16421 10 7.5 10.3358 7.5 10.75V12.25C7.5 12.3881 7.61192 12.5 7.75 12.5H9.25C9.66421 12.5 10 12.8358 10 13.25C10 13.6642 9.66421 14 9.25 14H7.75C6.78352 14 6 13.2165 6 12.25ZM12.5 9.25V7.75C12.5 7.61192 12.3881 7.5 12.25 7.5H10.75C10.3358 7.5 10 7.16421 10 6.75C10 6.33579 10.3358 6 10.75 6H12.25C13.2165 6 14 6.78352 14 7.75V9.25C14 9.66421 13.6642 10 13.25 10C12.8358 10 12.5 9.66421 12.5 9.25ZM20 12.25C20 13.2165 19.2165 14 18.25 14H14V18.25C14 19.2165 13.2165 20 12.25 20H1.75C0.783516 20 0 19.2165 0 18.25V7.75C0 6.78351 0.783506 6 1.75 6H6V1.75C6 0.783506 6.78351 0 7.75 0H18.25C19.2165 0 20 0.783516 20 1.75V12.25Z" fill="var(--fill-0, white)"/>
</svg>
