<svg width="24" height="24" viewBox="0 0 24 24" fill="none" xmlns="http://www.w3.org/2000/svg">
<g clip-path="url(#clip0_2667_2399)">
<path d="M20.5 3.75C20.5 3.61192 20.3881 3.5 20.25 3.5H9.75C9.61193 3.5 9.5 3.61193 9.5 3.75V8.75C9.5 9.16421 9.16421 9.5 8.75 9.5H3.75C3.61193 9.5 3.5 9.61193 3.5 9.75V20.25C3.5 20.3881 3.61192 20.5 3.75 20.5H14.25C14.3881 20.5 14.5 20.3881 14.5 20.25V15.25C14.5 14.8358 14.8358 14.5 15.25 14.5H20.25C20.3881 14.5 20.5 14.3881 20.5 14.25V3.75ZM8 14.25V12.75C8 12.3358 8.33579 12 8.75 12C9.16421 12 9.5 12.3358 9.5 12.75V14.25C9.5 14.3881 9.61192 14.5 9.75 14.5H11.25C11.6642 14.5 12 14.8358 12 15.25C12 15.6642 11.6642 16 11.25 16H9.75C8.78352 16 8 15.2165 8 14.25ZM14.5 11.25V9.75C14.5 9.61192 14.3881 9.5 14.25 9.5H12.75C12.3358 9.5 12 9.16421 12 8.75C12 8.33579 12.3358 8 12.75 8H14.25C15.2165 8 16 8.78352 16 9.75V11.25C16 11.6642 15.6642 12 15.25 12C14.8358 12 14.5 11.6642 14.5 11.25ZM22 14.25C22 15.2165 21.2165 16 20.25 16H16V20.25C16 21.2165 15.2165 22 14.25 22H3.75C2.78352 22 2 21.2165 2 20.25V9.75C2 8.78351 2.78351 8 3.75 8H8V3.75C8 2.78351 8.78351 2 9.75 2H20.25C21.2165 2 22 2.78352 22 3.75V14.25Z" fill="white"/>
</g>
<defs>
<clipPath id="clip0_2667_2399">
<rect width="24" height="24" fill="white"/>
</clipPath>
</defs>
</svg>
