<svg width="24" height="24" viewBox="0 0 24 24" fill="none" xmlns="http://www.w3.org/2000/svg">
<g clip-path="url(#clip0_2667_1854)">
<path d="M23.1115 17.5914C23.5255 17.5917 23.8614 17.9275 23.8615 18.3414C23.8615 18.7555 23.5256 19.0912 23.1115 19.0914H0.888887C0.474673 19.0914 0.138887 18.7556 0.138887 18.3414C0.139002 17.9273 0.474744 17.5914 0.888887 17.5914H23.1115ZM6.97678 10.36V6.51428C6.97678 6.10007 7.31256 5.76428 7.72678 5.76428C8.14086 5.76443 8.47678 6.10016 8.47678 6.51428V10.36C8.47678 10.6538 8.71513 10.8922 9.009 10.8922H9.8635C10.1571 10.8921 10.3957 10.6538 10.3957 10.36V6.51428C10.3957 6.10007 10.7315 5.76428 11.1457 5.76428C11.5597 5.76451 11.8957 6.10021 11.8957 6.51428V10.36C11.8957 11.4821 10.9857 12.3921 9.8635 12.3922H9.009C7.88662 12.3922 6.97678 11.4822 6.97678 10.36ZM14.6692 11.6422V7.26428H13.7092C13.2951 7.26417 12.9592 6.92843 12.9592 6.51428C12.9592 6.10014 13.2951 5.76439 13.7092 5.76428H17.1281C17.5424 5.76428 17.8781 6.10007 17.8781 6.51428C17.8781 6.9285 17.5424 7.26428 17.1281 7.26428H16.1692V11.6422C16.1692 12.0563 15.8332 12.392 15.4192 12.3922C15.0049 12.3922 14.6692 12.0564 14.6692 11.6422ZM22.3615 7.79651C22.3615 7.50288 22.1231 7.26445 21.8293 7.26428H20.9738C20.6802 7.26453 20.4426 7.50285 20.4426 7.79651V10.36C20.4426 10.6537 20.6803 10.892 20.9738 10.8922H21.8293C22.123 10.892 22.3615 10.6537 22.3615 10.36V7.79651ZM3.02561 5.76428C3.56764 5.76428 4.05282 6.08937 4.26193 6.58167L4.30002 6.68225L5.87424 11.4049C6.00522 11.7979 5.79257 12.2231 5.39963 12.3541C5.00667 12.4851 4.58139 12.2725 4.45041 11.8795L4.05197 10.6832H1.99924L1.6008 11.8795C1.46982 12.2725 1.04454 12.4851 0.651582 12.3541C0.258682 12.2231 0.0460021 11.7978 0.176973 11.4049L1.75119 6.68225H1.75217C1.93509 6.13427 2.44757 5.76432 3.02561 5.76428ZM2.49924 9.18323H3.55197L3.02561 7.6051L2.49924 9.18323ZM23.8615 10.36C23.8615 11.4821 22.9514 12.392 21.8293 12.3922H20.9738C19.8517 12.392 18.9426 11.482 18.9426 10.36V7.79651C18.9426 6.67442 19.8518 5.76453 20.9738 5.76428H21.8293C22.9513 5.76445 23.8615 6.6743 23.8615 7.79651V10.36Z" fill="white"/>
</g>
<defs>
<clipPath id="clip0_2667_1854">
<rect width="24" height="24" fill="white"/>
</clipPath>
</defs>
</svg>
