<svg preserveAspectRatio="xMidYMid meet" width="100%" height="100%" overflow="visible" style="display: block;" viewBox="0 0 23.7232 13.3271" fill="none" xmlns="http://www.w3.org/2000/svg">
<path id="Vector" d="M22.9732 11.8271C23.3872 11.8274 23.7231 12.1632 23.7232 12.5771C23.7232 12.9912 23.3872 13.3269 22.9732 13.3271H0.750566C0.336352 13.3271 0.000565827 12.9914 0.000565827 12.5771C0.000681254 12.163 0.336423 11.8271 0.750566 11.8271H22.9732ZM6.83846 4.5957V0.75C6.83846 0.335786 7.17424 0 7.58846 0C8.00254 0.000151488 8.33846 0.33588 8.33846 0.75V4.5957C8.33846 4.88955 8.57681 5.12793 8.87068 5.12793H9.72517C10.0188 5.12782 10.2574 4.88953 10.2574 4.5957V0.75C10.2574 0.335786 10.5932 0 11.0074 0C11.4214 0.000228231 11.7574 0.335927 11.7574 0.75V4.5957C11.7574 5.7178 10.8474 6.62782 9.72517 6.62793H8.87068C7.7483 6.62793 6.83846 5.7179 6.83846 4.5957ZM14.5308 5.87793V1.5H13.5709C13.1568 1.49989 12.8209 1.16415 12.8209 0.75C12.8209 0.335855 13.1568 0.00011079 13.5709 0H16.9898C17.404 0 17.7398 0.335786 17.7398 0.75C17.7398 1.16421 17.404 1.5 16.9898 1.5H16.0308V5.87793C16.0308 6.29203 15.6949 6.62774 15.2808 6.62793C14.8666 6.62793 14.5308 6.29214 14.5308 5.87793ZM22.2232 2.03223C22.2232 1.7386 21.9847 1.50017 21.691 1.5H20.8355C20.5419 1.50025 20.3043 1.73856 20.3043 2.03223V4.5957C20.3043 4.88944 20.542 5.12768 20.8355 5.12793H21.691C21.9847 5.12776 22.2232 4.88941 22.2232 4.5957V2.03223ZM2.88728 0C3.42932 0 3.9145 0.32509 4.12361 0.817383L4.1617 0.917969L5.73592 5.64062C5.8669 6.03357 5.65425 6.45885 5.26131 6.58984C4.86835 6.72082 4.44307 6.50819 4.31209 6.11523L3.91365 4.91895H1.86092L1.46248 6.11523C1.3315 6.50819 0.90622 6.72082 0.513261 6.58984C0.120361 6.45883 -0.0923188 6.03355 0.0386518 5.64062L1.61287 0.917969H1.61385C1.79677 0.369992 2.30925 3.62989e-05 2.88728 0ZM2.36092 3.41895H3.41365L2.88728 1.84082L2.36092 3.41895ZM23.7232 4.5957C23.7232 5.71784 22.8131 6.62776 21.691 6.62793H20.8355C19.7134 6.62768 18.8043 5.71771 18.8043 4.5957V2.03223C18.8043 0.910141 19.7135 0.000245295 20.8355 0H21.691C22.813 0.000169032 23.7232 0.910014 23.7232 2.03223V4.5957Z" fill="var(--fill-0, white)"/>
</svg>
