<svg width="24" height="24" viewBox="0 0 24 24" fill="none" xmlns="http://www.w3.org/2000/svg">
<g clip-path="url(#clip0_2667_1998)">
<path d="M15.25 11.2002C15.25 10.6278 15.2498 10.2431 15.2256 9.94727C15.2021 9.66027 15.1594 9.52316 15.1133 9.43262C14.9935 9.1975 14.8025 9.00655 14.5674 8.88672C14.4768 8.84059 14.3397 8.79788 14.0527 8.77442C13.7569 8.75024 13.3722 8.75 12.7998 8.75H7.2002C6.62777 8.75 6.24314 8.75024 5.94727 8.77442C5.66027 8.79788 5.52316 8.84059 5.43262 8.88672C5.1975 9.00655 5.00655 9.1975 4.88672 9.43262C4.84059 9.52316 4.79788 9.66027 4.77441 9.94727C4.75024 10.2431 4.75 10.6278 4.75 11.2002V16.7998C4.75 17.3722 4.75024 17.7569 4.77441 18.0527C4.79788 18.3397 4.84059 18.4768 4.88672 18.5674C5.00655 18.8025 5.1975 18.9935 5.43262 19.1133C5.52316 19.1594 5.66027 19.2021 5.94727 19.2256C6.24314 19.2498 6.62777 19.25 7.2002 19.25H12.7998C13.3722 19.25 13.7569 19.2498 14.0527 19.2256C14.3397 19.2021 14.4768 19.1594 14.5674 19.1133C14.8025 18.9935 14.9935 18.8025 15.1133 18.5674C15.1594 18.4768 15.2021 18.3397 15.2256 18.0527C15.2498 17.7569 15.25 17.3722 15.25 16.7998V11.2002ZM16.75 15.25H16.7998C17.3722 15.25 17.7569 15.2498 18.0527 15.2256C18.3397 15.2021 18.4768 15.1594 18.5674 15.1133C18.8025 14.9935 18.9935 14.8025 19.1133 14.5674C19.1594 14.4768 19.2021 14.3397 19.2256 14.0527C19.2498 13.7569 19.25 13.3722 19.25 12.7998V7.2002C19.25 6.62777 19.2498 6.24315 19.2256 5.94727C19.2021 5.66027 19.1594 5.52316 19.1133 5.43262C18.9935 5.1975 18.8025 5.00655 18.5674 4.88672C18.4768 4.84059 18.3397 4.79788 18.0527 4.77442C17.7569 4.75024 17.3722 4.75 16.7998 4.75H11.2002C10.6278 4.75 10.2431 4.75024 9.94727 4.77442C9.66027 4.79788 9.52316 4.84059 9.43262 4.88672C9.1975 5.00655 9.00655 5.19751 8.88672 5.43262C8.84059 5.52316 8.79788 5.66027 8.77441 5.94727C8.75024 6.24315 8.75 6.62777 8.75 7.2002V7.25H12.7998C13.3475 7.25 13.8037 7.24898 14.1748 7.2793C14.5545 7.31033 14.9109 7.3781 15.248 7.54981C15.7655 7.81346 16.1865 8.23451 16.4502 8.75196C16.6219 9.0891 16.6897 9.44547 16.7207 9.8252C16.751 10.1963 16.75 10.6525 16.75 11.2002V15.25ZM20.75 12.7998C20.75 13.3475 20.751 13.8037 20.7207 14.1748C20.6897 14.5545 20.6219 14.9109 20.4502 15.2481C20.1865 15.7655 19.7655 16.1865 19.248 16.4502C18.9109 16.6219 18.5545 16.6897 18.1748 16.7207C17.8037 16.751 17.3475 16.75 16.7998 16.75H16.75V16.7998C16.75 17.3475 16.751 17.8037 16.7207 18.1748C16.6897 18.5545 16.6219 18.9109 16.4502 19.2481C16.1865 19.7655 15.7655 20.1865 15.248 20.4502C14.9109 20.6219 14.5545 20.6897 14.1748 20.7207C13.8037 20.751 13.3475 20.75 12.7998 20.75H7.2002C6.65252 20.75 6.19632 20.751 5.8252 20.7207C5.44546 20.6897 5.0891 20.6219 4.75195 20.4502C4.23451 20.1865 3.81346 19.7655 3.5498 19.2481C3.37809 18.9109 3.31033 18.5545 3.2793 18.1748C3.24897 17.8037 3.25 17.3475 3.25 16.7998V11.2002C3.25 10.6525 3.24897 10.1963 3.2793 9.8252C3.31033 9.44547 3.37809 9.0891 3.5498 8.75196C3.81346 8.23451 4.23451 7.81346 4.75195 7.54981C5.0891 7.3781 5.44546 7.31033 5.8252 7.2793C6.19632 7.24898 6.65252 7.25 7.2002 7.25H7.25V7.2002C7.25 6.65252 7.24897 6.19633 7.2793 5.8252C7.31033 5.44547 7.37809 5.0891 7.5498 4.75196C7.81346 4.23451 8.23451 3.81346 8.75195 3.54981C9.0891 3.3781 9.44546 3.31033 9.8252 3.2793C10.1963 3.24898 10.6525 3.25 11.2002 3.25H16.7998C17.3475 3.25 17.8037 3.24898 18.1748 3.2793C18.5545 3.31033 18.9109 3.3781 19.248 3.54981C19.7655 3.81346 20.1865 4.23451 20.4502 4.75196C20.6219 5.0891 20.6897 5.44547 20.7207 5.8252C20.751 6.19633 20.75 6.65252 20.75 7.2002V12.7998Z" fill="white"/>
</g>
<defs>
<clipPath id="clip0_2667_1998">
<rect width="24" height="24" fill="white"/>
</clipPath>
</defs>
</svg>
