<svg preserveAspectRatio="xMidYMid meet" width="100%" height="100%" overflow="visible" style="display: block;" viewBox="0 0 17.5 17.5" fill="none" xmlns="http://www.w3.org/2000/svg">
<path id="Vector" d="M12 7.9502C12 7.37777 11.9998 6.99315 11.9756 6.69727C11.9521 6.41027 11.9094 6.27316 11.8633 6.18262C11.7435 5.94751 11.5525 5.75655 11.3174 5.63672C11.2268 5.59059 11.0897 5.54788 10.8027 5.52442C10.5069 5.50024 10.1222 5.5 9.54981 5.5H3.9502C3.37777 5.5 2.99315 5.50024 2.69727 5.52442C2.41027 5.54788 2.27316 5.59059 2.18262 5.63672C1.94751 5.75655 1.75655 5.94751 1.63672 6.18262C1.59059 6.27316 1.54788 6.41027 1.52442 6.69727C1.50024 6.99315 1.5 7.37777 1.5 7.9502V13.5498C1.5 14.1222 1.50024 14.5069 1.52442 14.8027C1.54788 15.0897 1.59059 15.2268 1.63672 15.3174C1.75655 15.5525 1.9475 15.7435 2.18262 15.8633C2.27316 15.9094 2.41027 15.9521 2.69727 15.9756C2.99315 15.9998 3.37777 16 3.9502 16H9.54981C10.1222 16 10.5069 15.9998 10.8027 15.9756C11.0897 15.9521 11.2268 15.9094 11.3174 15.8633C11.5525 15.7435 11.7435 15.5525 11.8633 15.3174C11.9094 15.2268 11.9521 15.0897 11.9756 14.8027C11.9998 14.5069 12 14.1222 12 13.5498V7.9502ZM13.5 12H13.5498C14.1222 12 14.5069 11.9998 14.8027 11.9756C15.0897 11.9521 15.2268 11.9094 15.3174 11.8633C15.5525 11.7435 15.7435 11.5525 15.8633 11.3174C15.9094 11.2268 15.9521 11.0897 15.9756 10.8027C15.9998 10.5069 16 10.1222 16 9.54981V3.9502C16 3.37777 15.9998 2.99315 15.9756 2.69727C15.9521 2.41027 15.9094 2.27316 15.8633 2.18262C15.7435 1.9475 15.5525 1.75655 15.3174 1.63672C15.2268 1.59059 15.0897 1.54788 14.8027 1.52442C14.5069 1.50024 14.1222 1.5 13.5498 1.5H7.9502C7.37777 1.5 6.99315 1.50024 6.69727 1.52442C6.41027 1.54788 6.27316 1.59059 6.18262 1.63672C5.94751 1.75655 5.75655 1.94751 5.63672 2.18262C5.59059 2.27316 5.54788 2.41027 5.52442 2.69727C5.50024 2.99315 5.5 3.37777 5.5 3.9502V4H9.54981C10.0975 4 10.5537 3.99898 10.9248 4.0293C11.3045 4.06033 11.6609 4.1281 11.9981 4.29981C12.5155 4.56346 12.9365 4.98451 13.2002 5.50196C13.3719 5.8391 13.4397 6.19547 13.4707 6.5752C13.501 6.94633 13.5 7.40252 13.5 7.9502V12ZM17.5 9.54981C17.5 10.0975 17.501 10.5537 17.4707 10.9248C17.4397 11.3045 17.3719 11.6609 17.2002 11.9981C16.9365 12.5155 16.5155 12.9365 15.9981 13.2002C15.6609 13.3719 15.3045 13.4397 14.9248 13.4707C14.5537 13.501 14.0975 13.5 13.5498 13.5H13.5V13.5498C13.5 14.0975 13.501 14.5537 13.4707 14.9248C13.4397 15.3045 13.3719 15.6609 13.2002 15.9981C12.9365 16.5155 12.5155 16.9365 11.9981 17.2002C11.6609 17.3719 11.3045 17.4397 10.9248 17.4707C10.5537 17.501 10.0975 17.5 9.54981 17.5H3.9502C3.40252 17.5 2.94633 17.501 2.5752 17.4707C2.19547 17.4397 1.8391 17.3719 1.50196 17.2002C0.984512 16.9365 0.563461 16.5155 0.299809 15.9981C0.128096 15.6609 0.0603329 15.3045 0.029301 14.9248C-0.0010215 14.5537 4.11746e-06 14.0975 4.11746e-06 13.5498V7.9502C4.11746e-06 7.40252 -0.0010215 6.94633 0.029301 6.5752C0.0603328 6.19547 0.128096 5.8391 0.299809 5.50196C0.563461 4.98451 0.984512 4.56346 1.50196 4.29981C1.8391 4.1281 2.19547 4.06033 2.5752 4.0293C2.94633 3.99898 3.40252 4 3.9502 4H4V3.9502C4 3.40252 3.99898 2.94633 4.0293 2.5752C4.06033 2.19547 4.1281 1.8391 4.29981 1.50196C4.56346 0.984512 4.98451 0.563461 5.50196 0.299809C5.8391 0.128096 6.19547 0.0603328 6.5752 0.029301C6.94633 -0.0010215 7.40252 4.11746e-06 7.9502 4.11746e-06H13.5498C14.0975 4.11746e-06 14.5537 -0.0010215 14.9248 0.029301C15.3045 0.0603329 15.6609 0.128096 15.9981 0.299809C16.5155 0.563461 16.9365 0.984512 17.2002 1.50196C17.3719 1.8391 17.4397 2.19547 17.4707 2.5752C17.501 2.94633 17.5 3.40252 17.5 3.9502V9.54981Z" fill="var(--fill-0, white)"/>
</svg>
