<svg width="24" height="24" viewBox="0 0 24 24" fill="none" xmlns="http://www.w3.org/2000/svg">
<g clip-path="url(#clip0_2667_2368)">
<path d="M5.25 17V15.8809C4.37657 16.19 3.75 17.0207 3.75 18C3.75 19.2426 4.75736 20.25 6 20.25C6.97933 20.25 7.81001 19.6234 8.11914 18.75H7C6.0335 18.75 5.25 17.9665 5.25 17ZM6.75 17C6.75 17.1381 6.86193 17.25 7 17.25H17C17.1381 17.25 17.25 17.1381 17.25 17V7C17.25 6.86193 17.1381 6.75 17 6.75H7C6.86193 6.75 6.75 6.86193 6.75 7V17ZM18.75 17C18.75 17.9665 17.9665 18.75 17 18.75H15.8809C16.19 19.6234 17.0207 20.25 18 20.25C19.2426 20.25 20.25 19.2426 20.25 18C20.25 17.0207 19.6234 16.19 18.75 15.8809V17ZM18.75 8.11816C19.6233 7.80895 20.25 6.97922 20.25 6C20.25 4.75736 19.2426 3.75 18 3.75C17.0207 3.75 16.19 4.37657 15.8809 5.25H17C17.9665 5.25 18.75 6.0335 18.75 7V8.11816ZM3.75 6C3.75 6.97922 4.37673 7.80895 5.25 8.11816V7C5.25 6.0335 6.0335 5.25 7 5.25H8.11914C7.81001 4.37657 6.97933 3.75 6 3.75C4.75736 3.75 3.75 4.75736 3.75 6ZM21.75 6C21.75 7.81421 20.4617 9.32734 18.75 9.6748V14.3242C20.4618 14.6716 21.75 16.1857 21.75 18C21.75 20.0711 20.0711 21.75 18 21.75C16.1858 21.75 14.6727 20.4617 14.3252 18.75H9.6748C9.32734 20.4617 7.81421 21.75 6 21.75C3.92893 21.75 2.25 20.0711 2.25 18C2.25 16.1857 3.53824 14.6716 5.25 14.3242V9.6748C3.53834 9.32734 2.25 7.81421 2.25 6C2.25 3.92893 3.92893 2.25 6 2.25C7.81421 2.25 9.32734 3.53834 9.6748 5.25H14.3252C14.6727 3.53834 16.1858 2.25 18 2.25C20.0711 2.25 21.75 3.92893 21.75 6Z" fill="white"/>
</g>
<defs>
<clipPath id="clip0_2667_2368">
<rect width="24" height="24" fill="white"/>
</clipPath>
</defs>
</svg>
