<svg preserveAspectRatio="xMidYMid meet" width="100%" height="100%" overflow="visible" style="display: block;" viewBox="0 0 19.5 19.5" fill="none" xmlns="http://www.w3.org/2000/svg">
<path id="Vector" d="M3 14.75V13.6309C2.12657 13.94 1.5 14.7707 1.5 15.75C1.5 16.9926 2.50736 18 3.75 18C4.72933 18 5.56001 17.3734 5.86914 16.5H4.75C3.7835 16.5 3 15.7165 3 14.75ZM4.5 14.75C4.5 14.8881 4.61193 15 4.75 15H14.75C14.8881 15 15 14.8881 15 14.75V4.75C15 4.61193 14.8881 4.5 14.75 4.5H4.75C4.61193 4.5 4.5 4.61193 4.5 4.75V14.75ZM16.5 14.75C16.5 15.7165 15.7165 16.5 14.75 16.5H13.6309C13.94 17.3734 14.7707 18 15.75 18C16.9926 18 18 16.9926 18 15.75C18 14.7707 17.3734 13.94 16.5 13.6309V14.75ZM16.5 5.86816C17.3733 5.55895 18 4.72922 18 3.75C18 2.50736 16.9926 1.5 15.75 1.5C14.7707 1.5 13.94 2.12657 13.6309 3H14.75C15.7165 3 16.5 3.7835 16.5 4.75V5.86816ZM1.5 3.75C1.5 4.72922 2.12673 5.55895 3 5.86816V4.75C3 3.7835 3.7835 3 4.75 3H5.86914C5.56001 2.12657 4.72933 1.5 3.75 1.5C2.50736 1.5 1.5 2.50736 1.5 3.75ZM19.5 3.75C19.5 5.56421 18.2117 7.07734 16.5 7.4248V12.0742C18.2118 12.4216 19.5 13.9357 19.5 15.75C19.5 17.8211 17.8211 19.5 15.75 19.5C13.9358 19.5 12.4227 18.2117 12.0752 16.5H7.4248C7.07734 18.2117 5.56421 19.5 3.75 19.5C1.67893 19.5 0 17.8211 0 15.75C0 13.9357 1.28824 12.4216 3 12.0742V7.4248C1.28834 7.07734 0 5.56421 0 3.75C0 1.67893 1.67893 0 3.75 0C5.56421 0 7.07734 1.28834 7.4248 3H12.0752C12.4227 1.28834 13.9358 0 15.75 0C17.8211 0 19.5 1.67893 19.5 3.75Z" fill="var(--fill-0, white)"/>
</svg>
