<svg width="24" height="24" viewBox="0 0 24 24" fill="none" xmlns="http://www.w3.org/2000/svg">
<g clip-path="url(#clip0_2656_716)">
<path d="M1 14C1 11.104 3.05125 8.68893 5.78027 8.125C6.80414 5.70199 9.20221 4 12 4C15.5729 4 18.4954 6.77619 18.7324 10.2891C21.1381 10.5881 23 12.6384 23 15.125C23 17.8174 20.8174 20 18.125 20H7C3.6863 20 1 17.3137 1 14ZM2.5 14C2.5 16.4853 4.51472 18.5 7 18.5H18.125C19.989 18.5 21.5 16.989 21.5 15.125C21.5 13.261 19.989 11.75 18.125 11.75C18.0895 11.75 18.0537 11.7509 18.0176 11.752C17.8094 11.7582 17.6073 11.6774 17.4609 11.5293C17.3147 11.3812 17.2364 11.1787 17.2451 10.9707C17.2482 10.8979 17.25 10.8243 17.25 10.75C17.25 7.8505 14.8995 5.5 12 5.5C9.70135 5.5 7.74554 6.9776 7.03516 9.03711C6.94217 9.3067 6.70473 9.50085 6.42188 9.53711C4.21 9.82038 2.5 11.7109 2.5 14Z" fill="white"/>
<path d="M14.3831 10.3068L12.6566 11.7508C12.3962 11.9686 12 11.7834 12 11.444V10.75C10.8954 10.75 10 11.6455 10 12.75C10 13.8546 10.8954 14.75 12 14.75C12.9808 14.75 13.7982 14.0432 13.9676 13.111C14.0417 12.7034 14.4322 12.4331 14.8397 12.5072C15.2472 12.5813 15.5175 12.9718 15.4435 13.3793C15.1466 15.012 13.7187 16.25 12 16.25C10.067 16.25 8.5 14.683 8.5 12.75C8.5 10.817 10.067 9.25002 12 9.25002V8.55598C12 8.21651 12.3962 8.03136 12.6566 8.24915L14.3831 9.69314C14.5743 9.85303 14.5743 10.1469 14.3831 10.3068Z" fill="white"/>
</g>
<defs>
<clipPath id="clip0_2656_716">
<rect width="24" height="24" fill="white"/>
</clipPath>
</defs>
</svg>
