<svg preserveAspectRatio="xMidYMid meet" width="20" height="20" overflow="visible" style="display: block;" viewBox="0 0 22 16" fill="none" xmlns="http://www.w3.org/2000/svg">
<g id="Vector">
<path d="M0 10C0 7.10402 2.05125 4.68893 4.78027 4.125C5.80414 1.70199 8.20221 0 11 0C14.5729 0 17.4954 2.77619 17.7324 6.28906C20.1381 6.58815 22 8.63835 22 11.125C22 13.8174 19.8174 16 17.125 16H6C2.6863 16 0 13.3137 0 10ZM1.5 10C1.5 12.4853 3.51472 14.5 6 14.5H17.125C18.989 14.5 20.5 12.989 20.5 11.125C20.5 9.26101 18.989 7.75 17.125 7.75C17.0895 7.75 17.0537 7.75087 17.0176 7.75195C16.8094 7.75822 16.6073 7.67743 16.4609 7.5293C16.3147 7.3812 16.2364 7.17869 16.2451 6.9707C16.2482 6.89794 16.25 6.82433 16.25 6.75C16.25 3.8505 13.8995 1.5 11 1.5C8.70136 1.5 6.74554 2.9776 6.03516 5.03711C5.94217 5.3067 5.70473 5.50085 5.42188 5.53711C3.21 5.82038 1.5 7.71089 1.5 10Z" fill="var(--fill-0, white)"/>
<path d="M13.3831 6.3068L11.6566 7.7508C11.3962 7.9686 11 7.7834 11 7.444V6.75C9.8954 6.75 9 7.6455 9 8.75C9 9.8546 9.8954 10.75 11 10.75C11.9808 10.75 12.7982 10.0432 12.9676 9.111C13.0417 8.7034 13.4322 8.4331 13.8397 8.5072C14.2472 8.5813 14.5175 8.9718 14.4435 9.3793C14.1466 11.012 12.7187 12.25 11 12.25C9.067 12.25 7.5 10.683 7.5 8.75C7.5 6.817 9.067 5.25002 11 5.25002V4.55598C11 4.21651 11.3962 4.03136 11.6566 4.24915L13.3831 5.69314C13.5743 5.85303 13.5743 6.1469 13.3831 6.3068Z" fill="var(--fill-0, white)"/>
</g>
</svg>
