<svg width="24" height="24" viewBox="0 0 24 24" fill="none" xmlns="http://www.w3.org/2000/svg">
<g clip-path="url(#clip0_2656_1189)">
<path d="M12.25 3H11.75C10.7835 3 10 3.7835 10 4.75V5.25C10 6.2165 10.7835 7 11.75 7H12.25C13.2165 7 14 6.2165 14 5.25V4.75C14 3.7835 13.2165 3 12.25 3Z" fill="white"/>
<path d="M12.25 10H11.75C10.7835 10 10 10.7835 10 11.75V12.25C10 13.2165 10.7835 14 11.75 14H12.25C13.2165 14 14 13.2165 14 12.25V11.75C14 10.7835 13.2165 10 12.25 10Z" fill="white"/>
<path d="M12.25 17H11.75C10.7835 17 10 17.7835 10 18.75V19.25C10 20.2165 10.7835 21 11.75 21H12.25C13.2165 21 14 20.2165 14 19.25V18.75C14 17.7835 13.2165 17 12.25 17Z" fill="white"/>
</g>
<defs>
<clipPath id="clip0_2656_1189">
<rect width="24" height="24" fill="white"/>
</clipPath>
</defs>
</svg>
