<svg width="24" height="24" viewBox="0 0 24 24" fill="none" xmlns="http://www.w3.org/2000/svg">
<g clip-path="url(#clip0_2667_2398)">
<path d="M16.625 14C17.2062 14 17.7285 14.2367 18.1592 14.501C18.5916 14.7663 19.0151 15.1141 19.3896 15.418C19.7831 15.7372 20.1298 16.0142 20.4658 16.2168C20.8024 16.4197 21.0537 16.5 21.25 16.5C21.6642 16.5 22 16.8358 22 17.25C22 17.6642 21.6642 18 21.25 18C20.661 18 20.1311 17.7677 19.6904 17.502C19.2491 17.2358 18.8221 16.8878 18.4453 16.582C18.0498 16.2611 17.7064 15.9837 17.375 15.7803C17.0417 15.5758 16.8025 15.5 16.625 15.5C16.4335 15.5 16.1853 15.5789 15.8496 15.7822C15.5148 15.985 15.1693 16.2624 14.7754 16.582C14.4004 16.8863 13.9757 17.2335 13.541 17.499C13.1076 17.7637 12.5833 18 12 18C11.4154 18 10.8902 17.7649 10.4551 17.5C10.0186 17.2343 9.59233 16.8868 9.2168 16.582C8.8226 16.2621 8.47835 15.9841 8.14453 15.7812C7.80944 15.5776 7.56305 15.5 7.375 15.5C7.19451 15.5 6.9537 15.5762 6.62012 15.7803C6.28796 15.9835 5.94404 16.2613 5.54883 16.582C5.1725 16.8874 4.74548 17.235 4.30566 17.501C3.86655 17.7665 3.33777 18 2.75 18C2.33579 18 2 17.6642 2 17.25C2 16.8358 2.33579 16.5 2.75 16.5C2.94339 16.5 3.19321 16.421 3.5293 16.2178C3.86447 16.0151 4.20986 15.7374 4.60352 15.418C4.9784 15.1138 5.403 14.7665 5.83691 14.501C6.26927 14.2365 6.79253 14 7.375 14C7.96053 14 8.48656 14.2349 8.92285 14.5C9.36028 14.7658 9.78633 15.113 10.1621 15.418C10.5566 15.7381 10.901 16.0157 11.2344 16.2188C11.5691 16.4225 11.814 16.5 12 16.5C12.1824 16.5 12.4248 16.4237 12.7588 16.2197C13.0914 16.0166 13.4351 15.7385 13.8301 15.418C14.2063 15.1127 14.6332 14.765 15.0723 14.499C15.5104 14.2336 16.038 14 16.625 14ZM16.625 6C17.2062 6 17.7285 6.23674 18.1592 6.50098C18.5916 6.7663 19.0151 7.11408 19.3896 7.41797C19.7831 7.73719 20.1298 8.0142 20.4658 8.2168C20.8024 8.41973 21.0537 8.5 21.25 8.5C21.6642 8.5 22 8.83579 22 9.25C22 9.66421 21.6642 10 21.25 10C20.661 10 20.1311 9.76769 19.6904 9.50195C19.2491 9.23582 18.8221 8.88777 18.4453 8.58203C18.0498 8.26106 17.7064 7.98366 17.375 7.78027C17.0417 7.57579 16.8025 7.5 16.625 7.5C16.4335 7.5 16.1853 7.5789 15.8496 7.78223C15.5148 7.985 15.1693 8.26235 14.7754 8.58203C14.4004 8.88634 13.9757 9.23348 13.541 9.49902C13.1076 9.76371 12.5833 10 12 10C11.4154 10 10.8902 9.76488 10.4551 9.5C10.0186 9.23428 9.59233 8.88677 9.2168 8.58203C8.8226 8.26214 8.47835 7.98412 8.14453 7.78125C7.80944 7.57763 7.56305 7.5 7.375 7.5C7.19451 7.5 6.9537 7.57623 6.62012 7.78027C6.28796 7.9835 5.94404 8.26133 5.54883 8.58203C5.1725 8.88742 4.74548 9.23497 4.30566 9.50098C3.86655 9.7665 3.33777 10 2.75 10C2.33579 10 2 9.66421 2 9.25C2 8.83579 2.33579 8.5 2.75 8.5C2.94339 8.5 3.19321 8.421 3.5293 8.21777C3.86447 8.01509 4.20986 7.73741 4.60352 7.41797C4.9784 7.11376 5.403 6.76646 5.83691 6.50098C6.26927 6.23646 6.79253 6 7.375 6C7.96053 6 8.48656 6.23488 8.92285 6.5C9.36028 6.76581 9.78633 7.11302 10.1621 7.41797C10.5566 7.73814 10.901 8.01575 11.2344 8.21875C11.5691 8.42253 11.814 8.5 12 8.5C12.1824 8.5 12.4248 8.42368 12.7588 8.21973C13.0914 8.0166 13.4351 7.73846 13.8301 7.41797C14.2063 7.11268 14.6332 6.76498 15.0723 6.49902C15.5104 6.23365 16.038 6 16.625 6Z" fill="white"/>
</g>
<defs>
<clipPath id="clip0_2667_2398">
<rect width="24" height="24" fill="white"/>
</clipPath>
</defs>
</svg>
