<svg preserveAspectRatio="xMidYMid meet" width="100%" height="100%" overflow="visible" style="display: block;" viewBox="0 0 20 12" fill="none" xmlns="http://www.w3.org/2000/svg">
<path id="Vector" d="M14.625 8C15.2062 8 15.7285 8.23674 16.1592 8.50098C16.5916 8.7663 17.0151 9.11408 17.3896 9.41797C17.7831 9.73719 18.1298 10.0142 18.4658 10.2168C18.8024 10.4197 19.0537 10.5 19.25 10.5C19.6642 10.5 20 10.8358 20 11.25C20 11.6642 19.6642 12 19.25 12C18.661 12 18.1311 11.7677 17.6904 11.502C17.2491 11.2358 16.8221 10.8878 16.4453 10.582C16.0498 10.2611 15.7064 9.98366 15.375 9.78027C15.0417 9.57579 14.8025 9.5 14.625 9.5C14.4335 9.5 14.1853 9.5789 13.8496 9.78223C13.5148 9.985 13.1693 10.2624 12.7754 10.582C12.4004 10.8863 11.9757 11.2335 11.541 11.499C11.1076 11.7637 10.5833 12 10 12C9.41544 12 8.89023 11.7649 8.45508 11.5C8.01861 11.2343 7.59233 10.8868 7.2168 10.582C6.8226 10.2621 6.47835 9.98412 6.14453 9.78125C5.80944 9.57763 5.56305 9.5 5.375 9.5C5.19451 9.5 4.9537 9.57623 4.62012 9.78027C4.28796 9.9835 3.94404 10.2613 3.54883 10.582C3.1725 10.8874 2.74548 11.235 2.30566 11.501C1.86655 11.7665 1.33777 12 0.75 12C0.335786 12 0 11.6642 0 11.25C0 10.8358 0.335786 10.5 0.75 10.5C0.943388 10.5 1.19321 10.421 1.5293 10.2178C1.86447 10.0151 2.20986 9.73741 2.60352 9.41797C2.9784 9.11376 3.403 8.76646 3.83691 8.50098C4.26927 8.23646 4.79253 8 5.375 8C5.96053 8 6.48656 8.23488 6.92285 8.5C7.36028 8.76581 7.78633 9.11302 8.16211 9.41797C8.55665 9.73814 8.90098 10.0157 9.23438 10.2188C9.5691 10.4225 9.81401 10.5 10 10.5C10.1824 10.5 10.4248 10.4237 10.7588 10.2197C11.0914 10.0166 11.4351 9.73846 11.8301 9.41797C12.2063 9.11268 12.6332 8.76498 13.0723 8.49902C13.5104 8.23365 14.038 8 14.625 8ZM14.625 0C15.2062 0 15.7285 0.236743 16.1592 0.500977C16.5916 0.766296 17.0151 1.11408 17.3896 1.41797C17.7831 1.73719 18.1298 2.0142 18.4658 2.2168C18.8024 2.41973 19.0537 2.5 19.25 2.5C19.6642 2.5 20 2.83579 20 3.25C20 3.66421 19.6642 4 19.25 4C18.661 4 18.1311 3.76769 17.6904 3.50195C17.2491 3.23582 16.8221 2.88777 16.4453 2.58203C16.0498 2.26106 15.7064 1.98366 15.375 1.78027C15.0417 1.57579 14.8025 1.5 14.625 1.5C14.4335 1.5 14.1853 1.5789 13.8496 1.78223C13.5148 1.985 13.1693 2.26235 12.7754 2.58203C12.4004 2.88634 11.9757 3.23349 11.541 3.49902C11.1076 3.76371 10.5833 4 10 4C9.41544 4 8.89023 3.76488 8.45508 3.5C8.01861 3.23428 7.59233 2.88677 7.2168 2.58203C6.8226 2.26214 6.47835 1.98412 6.14453 1.78125C5.80944 1.57763 5.56305 1.5 5.375 1.5C5.19451 1.5 4.9537 1.57623 4.62012 1.78027C4.28796 1.9835 3.94404 2.26133 3.54883 2.58203C3.1725 2.88742 2.74548 3.23497 2.30566 3.50098C1.86655 3.7665 1.33777 4 0.75 4C0.335786 4 0 3.66421 0 3.25C0 2.83579 0.335786 2.5 0.75 2.5C0.943388 2.5 1.19321 2.421 1.5293 2.21777C1.86447 2.01509 2.20986 1.73741 2.60352 1.41797C2.9784 1.11376 3.403 0.766459 3.83691 0.500977C4.26927 0.236456 4.79253 0 5.375 0C5.96053 0 6.48656 0.234884 6.92285 0.5C7.36028 0.765812 7.78633 1.11302 8.16211 1.41797C8.55665 1.73814 8.90098 2.01575 9.23438 2.21875C9.5691 2.42253 9.81401 2.5 10 2.5C10.1824 2.5 10.4248 2.42368 10.7588 2.21973C11.0914 2.0166 11.4351 1.73846 11.8301 1.41797C12.2063 1.11268 12.6332 0.764982 13.0723 0.499023C13.5104 0.233645 14.038 0 14.625 0Z" fill="var(--fill-0, white)"/>
</svg>
