<svg preserveAspectRatio="xMidYMid meet" width="20" height="20" overflow="visible" style="display: block;" viewBox="0 0 18 19.6922" fill="none" xmlns="http://www.w3.org/2000/svg">
<path id="Vector" d="M16.5 13.7676V5.9238C16.4999 5.83459 16.4521 5.75256 16.375 5.70798L9.125 1.53318C9.04775 1.4887 8.95226 1.4887 8.875 1.53318L1.625 5.70798C1.54785 5.75259 1.50012 5.83466 1.5 5.9238V13.7685C1.50014 13.8578 1.54792 13.9399 1.625 13.9844L8.875 18.1592C8.9521 18.2036 9.04776 18.2036 9.125 18.1592L16.375 13.9844C16.4522 13.9399 16.5 13.8571 16.5 13.7676ZM11.5 9.84568C11.4998 8.46516 10.3806 7.34568 9 7.34568C7.61944 7.34568 6.5002 8.46516 6.5 9.84568C6.5 11.2264 7.61931 12.3457 9 12.3457C10.3807 12.3457 11.5 11.2264 11.5 9.84568ZM13 9.84568C13 12.0548 11.2091 13.8457 9 13.8457C6.79089 13.8457 5 12.0548 5 9.84568C5.0002 7.63673 6.79101 5.84568 9 5.84568C11.209 5.84568 12.9998 7.63673 13 9.84568ZM18 13.7676C18 14.3933 17.6657 14.9718 17.123 15.2842L9.87305 19.459C9.33284 19.7699 8.66751 19.7701 8.12695 19.459L0.876953 15.2851C0.334394 14.9729 0.000136482 14.3943 0 13.7685V5.9238C0.000122225 5.29798 0.334556 4.71947 0.876953 4.4072L8.12695 0.233373L8.22949 0.178686C8.74993 -0.0765949 9.36629 -0.0583254 9.87305 0.233373L17.123 4.4072C17.6655 4.71951 17.9999 5.29804 18 5.9238V13.7676Z" fill="var(--fill-0, white)"/>
</svg>
