<svg preserveAspectRatio="xMidYMid meet" width="100%" height="100%" overflow="visible" style="display: block;" viewBox="0 0 18 19.4105" fill="none" xmlns="http://www.w3.org/2000/svg">
<path id="Vector" fill-rule="evenodd" clip-rule="evenodd" d="M0 6.37494C0 5.29111 0.584594 4.29155 1.52924 3.7602L7.52923 0.385262C8.44247 -0.128422 9.55753 -0.128421 10.4708 0.385265L16.4708 3.76023C17.4154 4.29158 18 5.29114 18 6.37496L18 13.0356C18 14.1194 17.4154 15.1189 16.4708 15.6503L10.4707 19.0252C9.55752 19.5389 8.44249 19.5389 7.52927 19.0253L1.52931 15.6506C0.584627 15.1192 0 14.1197 0 13.0358V6.37494ZM5.50003 9.70508C5.50003 7.77208 7.06703 6.20508 9.00003 6.20508C10.933 6.20508 12.5 7.77208 12.5 9.70508C12.5 11.6381 10.933 13.2051 9.00003 13.2051C7.06703 13.2051 5.50003 11.6381 5.50003 9.70508Z" fill="var(--fill-0, white)"/>
</svg>
