<svg width="24" height="24" viewBox="0 0 24 24" fill="none" xmlns="http://www.w3.org/2000/svg">
<g clip-path="url(#clip0_2667_2139)">
<path fill-rule="evenodd" clip-rule="evenodd" d="M2.99997 8.66986C2.99997 7.58603 3.58456 6.58648 4.52921 6.05512L10.5292 2.68018C11.4424 2.1665 12.5575 2.1665 13.4707 2.68019L19.4708 6.05515C20.4154 6.5865 21 7.58606 21 8.66989L21 15.3305C21 16.4143 20.4154 17.4139 19.4707 17.9452L13.4707 21.3202C12.5575 21.8338 11.4425 21.8338 10.5292 21.3202L4.52928 17.9455C3.5846 17.4142 2.99997 16.4146 2.99997 15.3307V8.66986ZM8.5 12C8.5 10.067 10.067 8.5 12 8.5C13.933 8.5 15.5 10.067 15.5 12C15.5 13.933 13.933 15.5 12 15.5C10.067 15.5 8.5 13.933 8.5 12Z" fill="white"/>
</g>
<defs>
<clipPath id="clip0_2667_2139">
<rect width="24" height="24" fill="white"/>
</clipPath>
</defs>
</svg>
