<svg width="24" height="24" viewBox="0 0 24 24" fill="none" xmlns="http://www.w3.org/2000/svg">
<g clip-path="url(#clip0_2532_3080)">
<path d="M19.5 15.9215V8.07776C19.4999 7.98855 19.4521 7.90652 19.375 7.86194L12.125 3.68714C12.0477 3.64266 11.9523 3.64266 11.875 3.68714L4.625 7.86194C4.54785 7.90655 4.50012 7.98862 4.5 8.07776V15.9225C4.50014 16.0117 4.54792 16.0938 4.625 16.1383L11.875 20.3131C11.9521 20.3575 12.0478 20.3576 12.125 20.3131L19.375 16.1383C19.4522 16.0938 19.5 16.011 19.5 15.9215ZM14.5 11.9996C14.4998 10.6191 13.3806 9.49964 12 9.49964C10.6194 9.49964 9.5002 10.6191 9.5 11.9996C9.5 13.3803 10.6193 14.4996 12 14.4996C13.3807 14.4996 14.5 13.3803 14.5 11.9996ZM16 11.9996C16 14.2088 14.2091 15.9996 12 15.9996C9.79089 15.9996 8 14.2088 8 11.9996C8.0002 9.7907 9.79101 7.99964 12 7.99964C14.209 7.99964 15.9998 9.7907 16 11.9996ZM21 15.9215C21 16.5473 20.6657 17.1258 20.123 17.4381L12.873 21.6129C12.3328 21.9239 11.6675 21.9241 11.127 21.6129L3.87695 17.4391C3.33439 17.1269 3.00014 16.5483 3 15.9225V8.07776C3.00012 7.45194 3.33456 6.87344 3.87695 6.56116L11.127 2.38733L11.2295 2.33265C11.7499 2.07737 12.3663 2.09564 12.873 2.38733L20.123 6.56116C20.6655 6.87347 20.9999 7.45201 21 8.07776V15.9215Z" fill="white"/>
</g>
<defs>
<clipPath id="clip0_2532_3080">
<rect width="24" height="24" fill="white"/>
</clipPath>
</defs>
</svg>
