<svg width="24" height="24" viewBox="0 0 24 24" fill="none" xmlns="http://www.w3.org/2000/svg">
<g clip-path="url(#clip0_2532_3072)">
<path d="M12 3.25C16.8325 3.25 20.75 7.16751 20.75 12C20.75 16.8325 16.8325 20.75 12 20.75C7.16751 20.75 3.25 16.8325 3.25 12C3.25 7.16751 7.16751 3.25 12 3.25ZM9.30664 12.75C9.38486 14.5119 9.73539 16.0655 10.2393 17.1992C10.5268 17.8462 10.8501 18.3236 11.1709 18.6289C11.4877 18.9303 11.7665 19.0342 12 19.0342C12.2335 19.0342 12.5123 18.9303 12.8291 18.6289C13.1499 18.3236 13.4732 17.8462 13.7607 17.1992C14.2646 16.0655 14.6151 14.5119 14.6934 12.75H9.30664ZM4.78809 12.75C5.07057 15.4987 6.88954 17.7906 9.37109 18.7568C9.18752 18.4646 9.01854 18.1469 8.86816 17.8086C8.26713 16.4562 7.88461 14.6876 7.80566 12.75H4.78809ZM16.1943 12.75C16.1154 14.6876 15.7329 16.4562 15.1318 17.8086C14.9814 18.1471 14.8116 18.4645 14.6279 18.7568C17.1099 17.7908 18.9294 15.499 19.2119 12.75H16.1943ZM14.6279 5.24219C14.8118 5.53469 14.9813 5.85263 15.1318 6.19141C15.7329 7.54377 16.1154 9.31237 16.1943 11.25H19.2119C18.9294 8.50087 17.1101 6.20813 14.6279 5.24219ZM12 4.96582C11.7665 4.96582 11.4877 5.06972 11.1709 5.37109C10.8501 5.67635 10.5268 6.15377 10.2393 6.80078C9.73539 7.93453 9.38486 9.48813 9.30664 11.25H14.6934C14.6151 9.48814 14.2646 7.93453 13.7607 6.80078C13.4732 6.15377 13.1499 5.67636 12.8291 5.37109C12.5123 5.06971 12.2335 4.96582 12 4.96582ZM9.37109 5.24219C6.88937 6.20832 5.07059 8.50118 4.78809 11.25H7.80566C7.88462 9.31237 8.26713 7.54377 8.86816 6.19141C9.01866 5.85279 9.18734 5.53457 9.37109 5.24219Z" fill="white"/>
</g>
<defs>
<clipPath id="clip0_2532_3072">
<rect width="24" height="24" fill="white"/>
</clipPath>
</defs>
</svg>
