<svg preserveAspectRatio="xMidYMid meet" width="100%" height="100%" overflow="visible" style="display: block;" viewBox="0 0 17.5 17.5" fill="none" xmlns="http://www.w3.org/2000/svg">
<path id="Vector" d="M8.75 0C13.5825 0 17.5 3.91751 17.5 8.75C17.5 13.5825 13.5825 17.5 8.75 17.5C3.91751 17.5 0 13.5825 0 8.75C0 3.91751 3.91751 0 8.75 0ZM6.05664 9.5C6.13486 11.2619 6.48539 12.8155 6.98926 13.9492C7.27682 14.5962 7.60014 15.0736 7.9209 15.3789C8.23768 15.6803 8.51645 15.7842 8.75 15.7842C8.98354 15.7842 9.26232 15.6803 9.5791 15.3789C9.89986 15.0736 10.2232 14.5962 10.5107 13.9492C11.0146 12.8155 11.3651 11.2619 11.4434 9.5H6.05664ZM1.53809 9.5C1.82057 12.2487 3.63954 14.5406 6.12109 15.5068C5.93752 15.2146 5.76854 14.8969 5.61816 14.5586C5.01713 13.2062 4.63462 11.4376 4.55566 9.5H1.53809ZM12.9443 9.5C12.8654 11.4376 12.4829 13.2062 11.8818 14.5586C11.7314 14.8971 11.5616 15.2145 11.3779 15.5068C13.8599 14.5408 15.6794 12.249 15.9619 9.5H12.9443ZM11.3779 1.99219C11.5618 2.28469 11.7313 2.60263 11.8818 2.94141C12.4829 4.29376 12.8654 6.06237 12.9443 8H15.9619C15.6794 5.25087 13.8601 2.95813 11.3779 1.99219ZM8.75 1.71582C8.51645 1.71582 8.23768 1.81972 7.9209 2.12109C7.60013 2.42635 7.27682 2.90377 6.98926 3.55078C6.48539 4.68453 6.13486 6.23813 6.05664 8H11.4434C11.3651 6.23814 11.0146 4.68453 10.5107 3.55078C10.2232 2.90377 9.89987 2.42636 9.5791 2.12109C9.26232 1.81971 8.98354 1.71582 8.75 1.71582ZM6.12109 1.99219C3.63937 2.95832 1.82059 5.25118 1.53809 8H4.55566C4.63462 6.06237 5.01713 4.29377 5.61816 2.94141C5.76866 2.60279 5.93734 2.28457 6.12109 1.99219Z" fill="var(--fill-0, white)"/>
</svg>
