<svg preserveAspectRatio="xMidYMid meet" width="100%" height="100%" overflow="visible" style="display: block;" viewBox="0 0 16.9287 16.9287" fill="none" xmlns="http://www.w3.org/2000/svg">
<path id="Vector" d="M16.1787 15.4287C16.5929 15.4288 16.9287 15.7645 16.9287 16.1787C16.9286 16.5928 16.5928 16.9286 16.1787 16.9287H0.75C0.335833 16.9287 7.57542e-05 16.5929 0 16.1787C0 15.7645 0.335786 15.4287 0.75 15.4287H16.1787ZM16.1787 10.2861C16.5929 10.2862 16.9287 10.622 16.9287 11.0361C16.9285 11.4501 16.5927 11.7861 16.1787 11.7861H0.75C0.335926 11.7861 0.000226171 11.4502 0 11.0361C0 10.6219 0.335786 10.2861 0.75 10.2861H16.1787ZM16.1787 6C16.5929 6.00008 16.9287 6.33583 16.9287 6.75C16.9287 7.16417 16.5929 7.49992 16.1787 7.5H0.75C0.335786 7.5 0 7.16421 0 6.75C0 6.33579 0.335786 6 0.75 6H16.1787ZM16.1787 2.57129C16.5928 2.57136 16.9286 2.90719 16.9287 3.32129C16.9287 3.73546 16.5929 4.07121 16.1787 4.07129H0.75C0.335786 4.07129 0 3.7355 0 3.32129C7.54965e-05 2.90714 0.335833 2.57129 0.75 2.57129H16.1787ZM16.1787 0C16.5929 7.5239e-05 16.9287 0.335833 16.9287 0.75C16.9287 1.16417 16.5929 1.49992 16.1787 1.5H0.75C0.335786 1.5 0 1.16421 0 0.75C0 0.335786 0.335786 0 0.75 0H16.1787Z" fill="var(--fill-0, white)"/>
</svg>
