<svg width="24" height="24" viewBox="0 0 24 24" fill="none" xmlns="http://www.w3.org/2000/svg">
<g clip-path="url(#clip0_2667_1994)">
<path d="M19.7144 18.9644C20.1286 18.9645 20.4644 19.3003 20.4644 19.7144C20.4643 20.1285 20.1285 20.4643 19.7144 20.4644H4.28571C3.87154 20.4644 3.53578 20.1286 3.53571 19.7144C3.53571 19.3002 3.87149 18.9644 4.28571 18.9644H19.7144ZM19.7144 13.8218C20.1286 13.8219 20.4644 14.1577 20.4644 14.5718C20.4642 14.9858 20.1284 15.3218 19.7144 15.3218H4.28571C3.87163 15.3218 3.53593 14.9859 3.53571 14.5718C3.53571 14.1576 3.87149 13.8218 4.28571 13.8218H19.7144ZM19.7144 9.53571C20.1286 9.53578 20.4644 9.87154 20.4644 10.2857C20.4644 10.6999 20.1286 11.0356 19.7144 11.0357H4.28571C3.87149 11.0357 3.53571 10.6999 3.53571 10.2857C3.53571 9.87149 3.87149 9.53571 4.28571 9.53571H19.7144ZM19.7144 6.10699C20.1285 6.10707 20.4643 6.44289 20.4644 6.85699C20.4644 7.27116 20.1286 7.60692 19.7144 7.60699H4.28571C3.87149 7.60699 3.53571 7.27121 3.53571 6.85699C3.53578 6.44285 3.87154 6.10699 4.28571 6.10699H19.7144ZM19.7144 3.53571C20.1286 3.53578 20.4644 3.87154 20.4644 4.28571C20.4644 4.69987 20.1286 5.03563 19.7144 5.03571H4.28571C3.87149 5.03571 3.53571 4.69992 3.53571 4.28571C3.53571 3.87149 3.87149 3.53571 4.28571 3.53571H19.7144Z" fill="white"/>
</g>
<defs>
<clipPath id="clip0_2667_1994">
<rect width="24" height="24" fill="white"/>
</clipPath>
</defs>
</svg>
