<svg preserveAspectRatio="xMidYMid meet" width="100%" height="100%" overflow="visible" style="display: block;" viewBox="0 0 19 19" fill="none" xmlns="http://www.w3.org/2000/svg">
<path id="Vector" d="M1.5 16.5C1.5 17.0523 1.94772 17.5 2.5 17.5H6.5C7.05228 17.5 7.5 17.0523 7.5 16.5V12.5C7.5 11.9477 7.05228 11.5 6.5 11.5V10C7.88071 10 9 11.1193 9 12.5V16.5C9 17.8807 7.88071 19 6.5 19H2.5C1.11929 19 0 17.8807 0 16.5V12.5C0 11.1193 1.11929 10 2.5 10V11.5C1.94772 11.5 1.5 11.9477 1.5 12.5V16.5ZM11.5 16.5C11.5 17.0523 11.9477 17.5 12.5 17.5H16.5C17.0523 17.5 17.5 17.0523 17.5 16.5V12.5C17.5 11.9477 17.0523 11.5 16.5 11.5V10C17.8807 10 19 11.1193 19 12.5V16.5C19 17.8807 17.8807 19 16.5 19H12.5C11.1193 19 10 17.8807 10 16.5V12.5C10 11.1193 11.1193 10 12.5 10V11.5C11.9477 11.5 11.5 11.9477 11.5 12.5V16.5ZM16.5 10V11.5H12.5V10H16.5ZM6.5 10V11.5H2.5V10H6.5ZM1.5 6.5C1.5 7.05228 1.94772 7.5 2.5 7.5H16.5C17.0523 7.5 17.5 7.05228 17.5 6.5V2.5C17.5 1.94772 17.0523 1.5 16.5 1.5V0C17.8807 0 19 1.11929 19 2.5V6.5C19 7.88071 17.8807 9 16.5 9H2.5C1.11929 9 0 7.88071 0 6.5V2.5C6.44266e-08 1.11929 1.11929 0 2.5 0V1.5C1.94772 1.5 1.5 1.94772 1.5 2.5V6.5ZM16.5 0V1.5H2.5V0H16.5Z" fill="var(--fill-0, white)"/>
</svg>
