<svg width="24" height="24" viewBox="0 0 24 24" fill="none" xmlns="http://www.w3.org/2000/svg">
<g clip-path="url(#clip0_2667_1855)">
<path d="M4 19C4 19.5523 4.44772 20 5 20H9C9.55228 20 10 19.5523 10 19V15C10 14.4477 9.55228 14 9 14V12.5C10.3807 12.5 11.5 13.6193 11.5 15V19C11.5 20.3807 10.3807 21.5 9 21.5H5C3.61929 21.5 2.5 20.3807 2.5 19V15C2.5 13.6193 3.61929 12.5 5 12.5V14C4.44772 14 4 14.4477 4 15V19ZM14 19C14 19.5523 14.4477 20 15 20H19C19.5523 20 20 19.5523 20 19V15C20 14.4477 19.5523 14 19 14V12.5C20.3807 12.5 21.5 13.6193 21.5 15V19C21.5 20.3807 20.3807 21.5 19 21.5H15C13.6193 21.5 12.5 20.3807 12.5 19V15C12.5 13.6193 13.6193 12.5 15 12.5V14C14.4477 14 14 14.4477 14 15V19ZM19 12.5V14H15V12.5H19ZM9 12.5V14H5V12.5H9ZM4 9C4 9.55228 4.44772 10 5 10H19C19.5523 10 20 9.55228 20 9V5C20 4.44772 19.5523 4 19 4V2.5C20.3807 2.5 21.5 3.61929 21.5 5V9C21.5 10.3807 20.3807 11.5 19 11.5H5C3.61929 11.5 2.5 10.3807 2.5 9V5C2.5 3.61929 3.61929 2.5 5 2.5V4C4.44772 4 4 4.44772 4 5V9ZM19 2.5V4H5V2.5H19Z" fill="white"/>
</g>
<defs>
<clipPath id="clip0_2667_1855">
<rect width="24" height="24" fill="white"/>
</clipPath>
</defs>
</svg>
