<svg preserveAspectRatio="xMidYMid meet" width="100%" height="100%" overflow="visible" style="display: block;" viewBox="0 0 16.002 21" fill="none" xmlns="http://www.w3.org/2000/svg">
<path id="Vector" d="M11.252 19.5C11.6661 19.5001 12.002 19.8358 12.002 20.25C12.002 20.6642 11.6661 20.9999 11.252 21H4.75195C4.33774 21 4.00195 20.6642 4.00195 20.25C4.00195 19.8358 4.33774 19.5 4.75195 19.5H11.252ZM5.5 16.5H10.502V15.2334H5.5V16.5ZM14.502 8.00098C14.502 4.41066 11.5913 1.50006 8.00098 1.5C4.41065 1.5 1.5 4.41063 1.5 8.00098C1.50003 10.1006 2.49512 11.9676 4.04199 13.1572C4.32279 13.3732 4.62238 13.5651 4.93652 13.7334H11.0654C11.3795 13.5651 11.6791 13.3732 11.96 13.1572C13.5068 11.9676 14.5019 10.1006 14.502 8.00098ZM16.002 8.00098C16.0019 10.586 14.7751 12.8853 12.875 14.3467C12.5982 14.5596 12.3058 14.7529 12.002 14.9287V16.75C12.002 17.4403 11.4423 18 10.752 18H5.25C4.55961 18 4 17.4403 4 16.75V14.9287C3.69611 14.7529 3.40375 14.5596 3.12695 14.3467C1.22675 12.8853 2.74582e-05 10.5861 0 8.00098C0 3.5822 3.58222 0 8.00098 0C12.4197 5.77258e-05 16.002 3.58224 16.002 8.00098Z" fill="var(--fill-0, white)"/>
</svg>
