<svg width="24" height="24" viewBox="0 0 24 24" fill="none" xmlns="http://www.w3.org/2000/svg">
<g clip-path="url(#clip0_2599_3721)">
<path d="M15.2502 20.5C15.6643 20.5001 16.0002 20.8358 16.0002 21.25C16.0002 21.6642 15.6643 21.9999 15.2502 22H8.75018C8.33597 22 8.00018 21.6642 8.00018 21.25C8.00018 20.8358 8.33597 20.5 8.75018 20.5H15.2502ZM9.49823 17.5H14.5002V16.2334H9.49823V17.5ZM18.5002 9.00098C18.5002 5.41066 15.5895 2.50006 11.9992 2.5C8.40888 2.5 5.49823 5.41063 5.49823 9.00098C5.49826 11.1006 6.49335 12.9676 8.04022 14.1572C8.32102 14.3732 8.62061 14.5651 8.93475 14.7334H15.0637C15.3778 14.5651 15.6774 14.3732 15.9582 14.1572C17.505 12.9676 18.5002 11.1006 18.5002 9.00098ZM20.0002 9.00098C20.0002 11.586 18.7733 13.8853 16.8732 15.3467C16.5964 15.5596 16.304 15.7529 16.0002 15.9287V17.75C16.0002 18.4403 15.4405 19 14.7502 19H9.24823C8.55784 19 7.99823 18.4403 7.99823 17.75V15.9287C7.69434 15.7529 7.40198 15.5596 7.12518 15.3467C5.22498 13.8853 3.99826 11.5861 3.99823 9.00098C3.99823 4.5822 7.58045 1 11.9992 1C16.418 1.00006 20.0002 4.58224 20.0002 9.00098Z" fill="white"/>
</g>
<defs>
<clipPath id="clip0_2599_3721">
<rect width="24" height="24" fill="white"/>
</clipPath>
</defs>
</svg>
