<svg width="24" height="24" viewBox="0 0 24 24" fill="none" xmlns="http://www.w3.org/2000/svg">
<g clip-path="url(#clip0_2667_2004)">
<path d="M10.7629 2.67692C11.4463 1.99358 12.5541 1.99353 13.2375 2.67692L15.5304 4.96989C15.8232 5.2628 15.8233 5.7376 15.5304 6.03044C15.2376 6.32328 14.7628 6.32318 14.4699 6.03044L12.7502 4.31071V11.2502H19.6896L17.9699 9.53044C17.677 9.23755 17.677 8.76278 17.9699 8.46989C18.2628 8.177 18.7375 8.177 19.0304 8.46989L21.3234 10.7629C22.0066 11.4463 22.0067 12.5541 21.3234 13.2375L19.0304 15.5304C18.7376 15.8233 18.2628 15.8232 17.9699 15.5304C17.677 15.2375 17.677 14.7628 17.9699 14.4699L19.6896 12.7502H12.7502V19.6896L14.4699 17.9699C14.7628 17.677 15.2375 17.677 15.5304 17.9699C15.8232 18.2628 15.8233 18.7376 15.5304 19.0304L13.2375 21.3234C12.5541 22.0067 11.4463 22.0066 10.7629 21.3234L8.46989 19.0304C8.177 18.7375 8.177 18.2628 8.46989 17.9699C8.76278 17.677 9.23755 17.677 9.53044 17.9699L11.2502 19.6896V12.7502H4.31071L6.03044 14.4699C6.32318 14.7628 6.32328 15.2376 6.03044 15.5304C5.7376 15.8233 5.2628 15.8232 4.96989 15.5304L2.67692 13.2375C1.99353 12.5541 1.99358 11.4463 2.67692 10.7629L4.96989 8.46989C5.26278 8.177 5.73755 8.177 6.03044 8.46989C6.32318 8.7628 6.32328 9.2376 6.03044 9.53044L4.31071 11.2502H11.2502V4.31071L9.53044 6.03044C9.2376 6.32328 8.7628 6.32318 8.46989 6.03044C8.177 5.73755 8.177 5.26278 8.46989 4.96989L10.7629 2.67692Z" fill="white"/>
</g>
<defs>
<clipPath id="clip0_2667_2004">
<rect width="24" height="24" fill="white"/>
</clipPath>
</defs>
</svg>
