<svg preserveAspectRatio="xMidYMid meet" width="100%" height="100%" overflow="visible" style="display: block;" viewBox="0 0 19.6714 19.6714" fill="none" xmlns="http://www.w3.org/2000/svg">
<path id="Vector" d="M8.59846 0.512525C9.28189 -0.170815 10.3897 -0.170868 11.0731 0.512525L13.366 2.80549C13.6588 3.0984 13.6589 3.5732 13.366 3.86604C13.0732 4.15888 12.5984 4.15878 12.3055 3.86604L10.5858 2.14631V9.08577H17.5252L15.8055 7.36604C15.5126 7.07315 15.5126 6.59839 15.8055 6.30549C16.0984 6.0126 16.5731 6.0126 16.866 6.30549L19.159 8.59846C19.8422 9.28187 19.8423 10.3897 19.159 11.0731L16.866 13.366C16.5732 13.6589 16.0984 13.6588 15.8055 13.366C15.5126 13.0731 15.5126 12.5984 15.8055 12.3055L17.5252 10.5858H10.5858V17.5252L12.3055 15.8055C12.5984 15.5126 13.0731 15.5126 13.366 15.8055C13.6588 16.0984 13.6589 16.5732 13.366 16.866L11.0731 19.159C10.3897 19.8423 9.28187 19.8422 8.59846 19.159L6.30549 16.866C6.0126 16.5731 6.0126 16.0984 6.30549 15.8055C6.59839 15.5126 7.07315 15.5126 7.36604 15.8055L9.08577 17.5252V10.5858H2.14631L3.86604 12.3055C4.15878 12.5984 4.15888 13.0732 3.86604 13.366C3.5732 13.6589 3.0984 13.6588 2.80549 13.366L0.512525 11.0731C-0.170868 10.3897 -0.170815 9.28189 0.512525 8.59846L2.80549 6.30549C3.09839 6.0126 3.57315 6.0126 3.86604 6.30549C4.15878 6.5984 4.15888 7.0732 3.86604 7.36604L2.14631 9.08577H9.08577V2.14631L7.36604 3.86604C7.0732 4.15888 6.5984 4.15878 6.30549 3.86604C6.0126 3.57315 6.0126 3.09839 6.30549 2.80549L8.59846 0.512525Z" fill="var(--fill-0, white)"/>
</svg>
