<svg width="24" height="24" viewBox="0 0 24 24" fill="none" xmlns="http://www.w3.org/2000/svg">
<g clip-path="url(#clip0_2667_2400)">
<path d="M18.5 11H5.5V12.75C5.5 12.8881 5.61192 13 5.75 13H9.75C9.9573 13 10.1551 13.0861 10.2969 13.2373C10.4386 13.3884 10.5113 13.5911 10.498 13.7979L10.1758 18.8037C10.1078 19.8576 10.9439 20.75 12 20.75C13.0561 20.75 13.8922 19.8576 13.8242 18.8037L13.502 13.7979C13.4887 13.5911 13.5614 13.3884 13.7031 13.2373C13.8449 13.0861 14.0427 13 14.25 13H18.25C18.3881 13 18.5 12.8881 18.5 12.75V11ZM18.5 3.75C18.5 3.61192 18.3881 3.5 18.25 3.5H11.875L10.5996 5.2002C10.458 5.38886 10.2359 5.5 10 5.5C9.76406 5.5 9.54204 5.38886 9.40039 5.2002L8.125 3.5H5.75C5.61193 3.5 5.5 3.61193 5.5 3.75V9.5H18.5V3.75ZM20 12.75C20 13.7165 19.2165 14.5 18.25 14.5H15.0498L15.3213 18.707C15.4451 20.6255 13.9225 22.25 12 22.25C10.0775 22.25 8.55494 20.6255 8.67871 18.707L8.9502 14.5H5.75C4.78352 14.5 4 13.7165 4 12.75V3.75C4 2.78349 4.78351 2 5.75 2H8.5C8.73594 2 8.95796 2.11114 9.09961 2.2998L10 3.5L10.9004 2.2998L10.957 2.23242C11.0977 2.08486 11.2936 2 11.5 2H18.25C19.2165 2 20 2.78352 20 3.75V12.75Z" fill="white"/>
</g>
<defs>
<clipPath id="clip0_2667_2400">
<rect width="24" height="24" fill="white"/>
</clipPath>
</defs>
</svg>
