<svg preserveAspectRatio="xMidYMid meet" width="100%" height="100%" overflow="visible" style="display: block;" viewBox="0 0 16 20.25" fill="none" xmlns="http://www.w3.org/2000/svg">
<path id="Vector" d="M14.5 9H1.5V10.75C1.5 10.8881 1.61192 11 1.75 11H5.75C5.9573 11 6.15509 11.0861 6.29688 11.2373C6.43856 11.3884 6.51127 11.5911 6.49805 11.7979L6.17578 16.8037C6.10779 17.8576 6.94392 18.75 8 18.75C9.05607 18.75 9.89222 17.8576 9.82422 16.8037L9.50195 11.7979C9.48873 11.5911 9.56144 11.3884 9.70312 11.2373C9.84491 11.0861 10.0427 11 10.25 11H14.25C14.3881 11 14.5 10.8881 14.5 10.75V9ZM14.5 1.75C14.5 1.61192 14.3881 1.5 14.25 1.5H7.875L6.59961 3.2002C6.45796 3.38886 6.23594 3.5 6 3.5C5.76406 3.5 5.54204 3.38886 5.40039 3.2002L4.125 1.5H1.75C1.61193 1.5 1.5 1.61193 1.5 1.75V7.5H14.5V1.75ZM16 10.75C16 11.7165 15.2165 12.5 14.25 12.5H11.0498L11.3213 16.707C11.4451 18.6255 9.92253 20.25 8 20.25C6.07748 20.25 4.55494 18.6255 4.67871 16.707L4.9502 12.5H1.75C0.783516 12.5 0 11.7165 0 10.75V1.75C0 0.783492 0.783511 0 1.75 0H4.5C4.73594 0 4.95796 0.11114 5.09961 0.299805L6 1.5L6.90039 0.299805L6.95703 0.232422C7.09767 0.0848625 7.29362 0 7.5 0H14.25C15.2165 0 16 0.783516 16 1.75V10.75Z" fill="var(--fill-0, white)"/>
</svg>
