<svg width="24" height="24" viewBox="0 0 24 24" fill="none" xmlns="http://www.w3.org/2000/svg">
<g clip-path="url(#clip0_2667_1999)">
<path d="M18.8567 20.25C19.2709 20.25 19.6067 20.5858 19.6067 21C19.6067 21.4142 19.2709 21.75 18.8567 21.75H5.14283C4.72861 21.75 4.39283 21.4142 4.39283 21C4.39283 20.5858 4.72861 20.25 5.14283 20.25H18.8567ZM18.1067 5.74317C18.1067 5.25075 18.1065 4.92598 18.0862 4.67774C18.0666 4.43845 18.0328 4.33635 18.0022 4.27637C17.9098 4.09495 17.7618 3.94792 17.5803 3.85547C17.5203 3.82491 17.4183 3.79007 17.179 3.77051C16.9308 3.75025 16.6067 3.75001 16.1145 3.75001H7.88599C7.39357 3.75001 7.0688 3.75023 6.82056 3.77051C6.58124 3.79008 6.47918 3.82491 6.41919 3.85547C6.23796 3.94789 6.09071 4.09514 5.9983 4.27637C5.96773 4.33636 5.9329 4.43842 5.91334 4.67774C5.89305 4.92598 5.89283 5.25075 5.89283 5.74317V13.9717C5.89283 14.4638 5.89307 14.788 5.91334 15.0361C5.93289 15.2755 5.96773 15.3775 5.9983 15.4375C6.09074 15.6189 6.23777 15.7669 6.41919 15.8594C6.47918 15.8899 6.58127 15.9238 6.82056 15.9434C7.0688 15.9636 7.39357 15.9639 7.88599 15.9639H16.1145C16.6067 15.9639 16.9308 15.9636 17.179 15.9434C17.418 15.9238 17.5203 15.8899 17.5803 15.8594C17.7618 15.7669 17.9098 15.6189 18.0022 15.4375C18.0327 15.3775 18.0667 15.2752 18.0862 15.0361C18.1065 14.788 18.1067 14.4639 18.1067 13.9717V5.74317ZM19.6067 13.9717C19.6067 14.4391 19.6077 14.8348 19.5813 15.1582C19.5542 15.4904 19.4944 15.8124 19.3381 16.1191C19.1019 16.5825 18.7253 16.9591 18.262 17.1953C17.9553 17.3516 17.6333 17.4113 17.301 17.4385C16.9776 17.4649 16.582 17.4639 16.1145 17.4639H7.88599C7.41832 17.4639 7.02198 17.4649 6.69849 17.4385C6.36631 17.4113 6.04518 17.3516 5.73853 17.1953C5.27495 16.9591 4.89765 16.5827 4.66138 16.1191C4.50511 15.8124 4.44536 15.4904 4.41822 15.1582C4.39182 14.8348 4.39283 14.4391 4.39283 13.9717V5.74317C4.39283 5.2755 4.39179 4.87916 4.41822 4.55567C4.44536 4.22354 4.50519 3.90232 4.66138 3.59571C4.89764 3.13202 5.27485 2.75482 5.73853 2.51856C6.04514 2.36237 6.36636 2.30254 6.69849 2.2754C7.02198 2.24897 7.41832 2.25001 7.88599 2.25001H16.1145C16.5819 2.25001 16.9777 2.24899 17.301 2.2754C17.6333 2.30254 17.9553 2.36229 18.262 2.51856C18.7255 2.75483 19.1019 3.13212 19.3381 3.59571C19.4944 3.90236 19.5542 4.22349 19.5813 4.55567C19.6077 4.87916 19.6067 5.2755 19.6067 5.74317V13.9717Z" fill="white"/>
</g>
<defs>
<clipPath id="clip0_2667_1999">
<rect width="24" height="24" fill="white"/>
</clipPath>
</defs>
</svg>
