<svg preserveAspectRatio="xMidYMid meet" width="100%" height="100%" overflow="visible" style="display: block;" viewBox="0 0 15.2139 19.5" fill="none" xmlns="http://www.w3.org/2000/svg">
<path id="Vector" d="M14.4639 18C14.8781 18 15.2139 18.3358 15.2139 18.75C15.2139 19.1642 14.8781 19.5 14.4639 19.5H0.750006C0.335792 19.5 5.52365e-06 19.1642 5.52365e-06 18.75C5.52365e-06 18.3358 0.335792 18 0.750006 18H14.4639ZM13.7139 3.49317C13.7139 3.00075 13.7136 2.67598 13.6934 2.42774C13.6738 2.18845 13.6399 2.08635 13.6094 2.02637C13.5169 1.84495 13.3689 1.69792 13.1875 1.60547C13.1275 1.57491 13.0255 1.54007 12.7861 1.52051C12.538 1.50025 12.2138 1.50001 11.7217 1.50001H3.49317C3.00075 1.50001 2.67598 1.50023 2.42774 1.52051C2.18842 1.54008 2.08636 1.57491 2.02637 1.60547C1.84514 1.69789 1.69789 1.84514 1.60547 2.02637C1.57491 2.08636 1.54008 2.18842 1.52051 2.42774C1.50023 2.67598 1.50001 3.00075 1.50001 3.49317V11.7217C1.50001 12.2138 1.50025 12.538 1.52051 12.7861C1.54007 13.0255 1.57491 13.1275 1.60547 13.1875C1.69792 13.3689 1.84495 13.5169 2.02637 13.6094C2.08635 13.6399 2.18845 13.6738 2.42774 13.6934C2.67598 13.7136 3.00075 13.7139 3.49317 13.7139H11.7217C12.2139 13.7139 12.538 13.7136 12.7861 13.6934C13.0252 13.6738 13.1275 13.6399 13.1875 13.6094C13.3689 13.5169 13.5169 13.3689 13.6094 13.1875C13.6399 13.1275 13.6738 13.0252 13.6934 12.7861C13.7136 12.538 13.7139 12.2139 13.7139 11.7217V3.49317ZM15.2139 11.7217C15.2139 12.1891 15.2149 12.5848 15.1885 12.9082C15.1613 13.2404 15.1016 13.5624 14.9453 13.8691C14.7091 14.3325 14.3325 14.7091 13.8691 14.9453C13.5624 15.1016 13.2404 15.1613 12.9082 15.1885C12.5848 15.2149 12.1891 15.2139 11.7217 15.2139H3.49317C3.0255 15.2139 2.62916 15.2149 2.30567 15.1885C1.97349 15.1613 1.65236 15.1016 1.34571 14.9453C0.882124 14.7091 0.504827 14.3327 0.26856 13.8691C0.112287 13.5624 0.0525414 13.2404 0.0253961 12.9082C-0.00100625 12.5848 5.31529e-06 12.1891 5.52365e-06 11.7217V3.49317C5.52365e-06 3.0255 -0.00103368 2.62916 0.0253961 2.30567C0.052542 1.97354 0.112369 1.65232 0.26856 1.34571C0.50482 0.882024 0.882023 0.50482 1.34571 0.26856C1.65232 0.112369 1.97354 0.052542 2.30567 0.0253961C2.62916 -0.00103374 3.0255 5.52452e-06 3.49317 5.52452e-06H11.7217C12.1891 5.31694e-06 12.5848 -0.00100633 12.9082 0.0253961C13.2405 0.0525414 13.5624 0.112287 13.8691 0.26856C14.3327 0.504827 14.7091 0.882124 14.9453 1.34571C15.1016 1.65236 15.1613 1.97349 15.1885 2.30567C15.2149 2.62916 15.2139 3.0255 15.2139 3.49317V11.7217Z" fill="var(--fill-0, white)"/>
</svg>
