<svg width="24" height="24" viewBox="0 0 24 24" fill="none" xmlns="http://www.w3.org/2000/svg">
<g clip-path="url(#clip0_2667_1803)">
<path d="M19.25 7.2002C19.25 6.62777 19.2498 6.24315 19.2256 5.94727C19.2021 5.66027 19.1594 5.52316 19.1133 5.43262C18.9935 5.1975 18.8025 5.00655 18.5674 4.88672C18.4768 4.84059 18.3397 4.79788 18.0527 4.77442C17.7569 4.75024 17.3722 4.75 16.7998 4.75H7.2002C6.62777 4.75 6.24315 4.75024 5.94727 4.77442C5.66027 4.79788 5.52316 4.84059 5.43262 4.88672C5.19751 5.00655 5.00655 5.19751 4.88672 5.43262C4.84059 5.52316 4.79788 5.66027 4.77442 5.94727C4.75024 6.24315 4.75 6.62777 4.75 7.2002V16.7998C4.75 17.3722 4.75024 17.7569 4.77442 18.0527C4.79788 18.3397 4.84059 18.4768 4.88672 18.5674C5.00655 18.8025 5.19751 18.9935 5.43262 19.1133C5.52316 19.1594 5.66027 19.2021 5.94727 19.2256C6.24315 19.2498 6.62777 19.25 7.2002 19.25H16.7998C17.3722 19.25 17.7569 19.2498 18.0527 19.2256C18.3397 19.2021 18.4768 19.1594 18.5674 19.1133C18.8025 18.9935 18.9935 18.8025 19.1133 18.5674C19.1594 18.4768 19.2021 18.3397 19.2256 18.0527C19.2498 17.7569 19.25 17.3722 19.25 16.7998V7.2002ZM11.25 15V12.75H9C8.58581 12.75 8.25001 12.4142 8.25 12C8.25002 11.5858 8.58581 11.25 9 11.25H11.25V9C11.2501 8.5859 11.5859 8.25002 12 8.25C12.4141 8.25001 12.7499 8.58589 12.75 9V11.25H15C15.4141 11.25 15.7499 11.5859 15.75 12C15.75 12.4142 15.4142 12.75 15 12.75H12.75V15C12.75 15.4142 12.4142 15.75 12 15.75C11.5858 15.75 11.25 15.4142 11.25 15ZM20.75 16.7998C20.75 17.3475 20.751 17.8037 20.7207 18.1748C20.6897 18.5545 20.6219 18.9109 20.4502 19.2481C20.1865 19.7655 19.7655 20.1865 19.2481 20.4502C18.9109 20.6219 18.5545 20.6897 18.1748 20.7207C17.8037 20.751 17.3475 20.75 16.7998 20.75H7.2002C6.65252 20.75 6.19633 20.751 5.8252 20.7207C5.44547 20.6897 5.0891 20.6219 4.75196 20.4502C4.23451 20.1865 3.81346 19.7655 3.54981 19.2481C3.3781 18.9109 3.31033 18.5545 3.2793 18.1748C3.24898 17.8037 3.25 17.3475 3.25 16.7998V7.2002C3.25 6.65252 3.24898 6.19633 3.2793 5.8252C3.31033 5.44547 3.3781 5.0891 3.54981 4.75196C3.81346 4.23451 4.23451 3.81346 4.75196 3.54981C5.0891 3.3781 5.44547 3.31033 5.8252 3.2793C6.19633 3.24898 6.65252 3.25 7.2002 3.25H16.7998C17.3475 3.25 17.8037 3.24898 18.1748 3.2793C18.5545 3.31033 18.9109 3.3781 19.2481 3.54981C19.7655 3.81346 20.1865 4.23451 20.4502 4.75196C20.6219 5.0891 20.6897 5.44547 20.7207 5.8252C20.751 6.19633 20.75 6.65252 20.75 7.2002V16.7998Z" fill="white"/>
</g>
<defs>
<clipPath id="clip0_2667_1803">
<rect width="24" height="24" fill="white"/>
</clipPath>
</defs>
</svg>
