<svg preserveAspectRatio="xMidYMid meet" width="100%" height="100%" overflow="visible" style="display: block;" viewBox="0 0 17.5 17.5" fill="none" xmlns="http://www.w3.org/2000/svg">
<path id="Vector" d="M16 3.9502C16 3.37777 15.9998 2.99315 15.9756 2.69727C15.9521 2.41027 15.9094 2.27316 15.8633 2.18262C15.7435 1.9475 15.5525 1.75655 15.3174 1.63672C15.2268 1.59059 15.0897 1.54788 14.8027 1.52442C14.5069 1.50024 14.1222 1.5 13.5498 1.5H3.9502C3.37777 1.5 2.99315 1.50024 2.69727 1.52442C2.41027 1.54788 2.27316 1.59059 2.18262 1.63672C1.94751 1.75655 1.75655 1.94751 1.63672 2.18262C1.59059 2.27316 1.54788 2.41027 1.52442 2.69727C1.50024 2.99315 1.5 3.37777 1.5 3.9502V13.5498C1.5 14.1222 1.50024 14.5069 1.52442 14.8027C1.54788 15.0897 1.59059 15.2268 1.63672 15.3174C1.75655 15.5525 1.94751 15.7435 2.18262 15.8633C2.27316 15.9094 2.41027 15.9521 2.69727 15.9756C2.99315 15.9998 3.37777 16 3.9502 16H13.5498C14.1222 16 14.5069 15.9998 14.8027 15.9756C15.0897 15.9521 15.2268 15.9094 15.3174 15.8633C15.5525 15.7435 15.7435 15.5525 15.8633 15.3174C15.9094 15.2268 15.9521 15.0897 15.9756 14.8027C15.9998 14.5069 16 14.1222 16 13.5498V3.9502ZM8 11.75V9.5H5.75C5.33581 9.49999 5.00001 9.1642 5 8.75C5.00002 8.3358 5.33581 8.00001 5.75 8H8V5.75C8.00012 5.3359 8.33588 5.00002 8.75 5C9.16414 5.00001 9.49989 5.33589 9.5 5.75V8H11.75C12.1641 8.00002 12.4999 8.3359 12.5 8.75C12.5 9.16422 12.1642 9.50002 11.75 9.5H9.5V11.75C9.5 12.1642 9.16421 12.5 8.75 12.5C8.33579 12.5 8 12.1642 8 11.75ZM17.5 13.5498C17.5 14.0975 17.501 14.5537 17.4707 14.9248C17.4397 15.3045 17.3719 15.6609 17.2002 15.9981C16.9365 16.5155 16.5155 16.9365 15.9981 17.2002C15.6609 17.3719 15.3045 17.4397 14.9248 17.4707C14.5537 17.501 14.0975 17.5 13.5498 17.5H3.9502C3.40252 17.5 2.94633 17.501 2.5752 17.4707C2.19547 17.4397 1.8391 17.3719 1.50196 17.2002C0.984512 16.9365 0.563461 16.5155 0.299809 15.9981C0.128096 15.6609 0.060333 15.3045 0.029301 14.9248C-0.0010215 14.5537 4.11746e-06 14.0975 4.11746e-06 13.5498V3.9502C4.11746e-06 3.40252 -0.0010215 2.94633 0.029301 2.5752C0.0603328 2.19547 0.128096 1.8391 0.299809 1.50196C0.563461 0.984512 0.984512 0.563461 1.50196 0.299809C1.8391 0.128096 2.19547 0.0603328 2.5752 0.029301C2.94633 -0.0010215 3.40252 4.11746e-06 3.9502 4.11746e-06H13.5498C14.0975 4.11746e-06 14.5537 -0.0010215 14.9248 0.029301C15.3045 0.0603329 15.6609 0.128096 15.9981 0.299809C16.5155 0.563461 16.9365 0.984512 17.2002 1.50196C17.3719 1.8391 17.4397 2.19547 17.4707 2.5752C17.501 2.94633 17.5 3.40252 17.5 3.9502V13.5498Z" fill="var(--fill-0, white)"/>
</svg>
