<svg width="24" height="24" viewBox="0 0 24 24" fill="none" xmlns="http://www.w3.org/2000/svg">
<g clip-path="url(#clip0_2667_2269)">
<path fill-rule="evenodd" clip-rule="evenodd" d="M18.4286 1.71429C19.8487 1.71429 21 2.86556 21 4.28572V19.7143C21 21.1345 19.8487 22.2857 18.4286 22.2857H5.57143C4.15127 22.2857 3 21.1345 3 19.7143V4.28572C3 2.86556 4.15127 1.71429 5.57143 1.71429H18.4286ZM6.21429 3.64287C5.50421 3.64287 4.92857 4.2185 4.92857 4.92858V16.5C4.92857 17.2101 5.50421 17.7857 6.21429 17.7857H17.7857C18.4958 17.7857 19.0714 17.2101 19.0714 16.5V4.92858C19.0714 4.2185 18.4958 3.64287 17.7857 3.64287H6.21429Z" fill="white"/>
<path fill-rule="evenodd" clip-rule="evenodd" d="M21 10.5H3V8.25001H21V10.5Z" fill="white"/>
<path d="M13.375 5.25001C14.4796 5.25001 15.375 6.14544 15.375 7.25001V10.75C15.375 11.8546 14.4796 12.75 13.375 12.75H10.625C9.52043 12.75 8.625 11.8546 8.625 10.75V7.25001C8.625 6.14544 9.52043 5.25001 10.625 5.25001H13.375Z" fill="white"/>
<path d="M10.875 13.9995V12H13.125V13.9995C13.125 14.6208 12.6213 15.1245 12 15.1245C11.3787 15.1245 10.875 14.6208 10.875 13.9995Z" fill="white"/>
</g>
<defs>
<clipPath id="clip0_2667_2269">
<rect width="24" height="24" fill="white"/>
</clipPath>
</defs>
</svg>
