<svg preserveAspectRatio="xMidYMid meet" width="100%" height="100%" overflow="visible" style="display: block;" viewBox="0 0 18 20.5714" fill="none" xmlns="http://www.w3.org/2000/svg">
<g id="Vector">
<path fill-rule="evenodd" clip-rule="evenodd" d="M15.4286 0C16.8487 0 18 1.15127 18 2.57143V18C18 19.4202 16.8487 20.5714 15.4286 20.5714H2.57143C1.15127 20.5714 0 19.4202 0 18V2.57143C0 1.15127 1.15127 6.21247e-08 2.57143 0H15.4286ZM3.21429 1.92857C2.50421 1.92857 1.92857 2.50421 1.92857 3.21429V14.7857C1.92857 15.4958 2.50421 16.0714 3.21429 16.0714H14.7857C15.4958 16.0714 16.0714 15.4958 16.0714 14.7857V3.21429C16.0714 2.50421 15.4958 1.92857 14.7857 1.92857H3.21429Z" fill="var(--fill-0, white)"/>
<path fill-rule="evenodd" clip-rule="evenodd" d="M18 8.78571H0V6.53571H18V8.78571Z" fill="var(--fill-0, white)"/>
<path d="M10.375 3.53571C11.4796 3.53571 12.375 4.43114 12.375 5.53571V9.03571C12.375 10.1403 11.4796 11.0357 10.375 11.0357H7.625C6.52043 11.0357 5.625 10.1403 5.625 9.03571V5.53571C5.625 4.43114 6.52043 3.53571 7.625 3.53571H10.375Z" fill="var(--fill-0, white)"/>
<path d="M7.875 12.2852V10.2857H10.125V12.2852C10.125 12.9065 9.62132 13.4102 9 13.4102C8.37868 13.4102 7.875 12.9065 7.875 12.2852Z" fill="var(--fill-0, white)"/>
</g>
</svg>
