<svg preserveAspectRatio="xMidYMid meet" width="100%" height="100%" overflow="visible" style="display: block;" viewBox="0 0 17.5 17.5" fill="none" xmlns="http://www.w3.org/2000/svg">
<path id="Vector" d="M6.21973 10.2197C6.51262 9.92683 6.98738 9.92683 7.28027 10.2197C7.57317 10.5126 7.57317 10.9874 7.28027 11.2803L2.56055 16H6.75C7.16421 16 7.5 16.3358 7.5 16.75C7.5 17.1642 7.16421 17.5 6.75 17.5H1.75C0.783502 17.5 5.15404e-07 16.7165 0 15.75V10.75C0 10.3358 0.335786 10 0.75 10C1.16421 10 1.5 10.3358 1.5 10.75V14.9395L6.21973 10.2197ZM16 6.75V2.56055L11.2803 7.28027C10.9874 7.57317 10.5126 7.57317 10.2197 7.28027C9.92683 6.98738 9.92683 6.51262 10.2197 6.21973L14.9395 1.5H10.75C10.3358 1.5 10 1.16421 10 0.75C10 0.335786 10.3358 0 10.75 0H15.75C16.7165 5.15413e-07 17.5 0.783502 17.5 1.75V6.75C17.5 7.16421 17.1642 7.5 16.75 7.5C16.3358 7.5 16 7.16421 16 6.75Z" fill="var(--fill-0, white)"/>
</svg>
