<svg width="24" height="24" viewBox="0 0 24 24" fill="none" xmlns="http://www.w3.org/2000/svg">
<g clip-path="url(#clip0_2667_2001)">
<path d="M9.46973 13.4697C9.76262 13.1768 10.2374 13.1768 10.5303 13.4697C10.8232 13.7626 10.8232 14.2374 10.5303 14.5303L5.81055 19.25H10C10.4142 19.25 10.75 19.5858 10.75 20C10.75 20.4142 10.4142 20.75 10 20.75H5C4.0335 20.75 3.25 19.9665 3.25 19V14C3.25 13.5858 3.58579 13.25 4 13.25C4.41421 13.25 4.75 13.5858 4.75 14V18.1895L9.46973 13.4697ZM19.25 10V5.81055L14.5303 10.5303C14.2374 10.8232 13.7626 10.8232 13.4697 10.5303C13.1768 10.2374 13.1768 9.76262 13.4697 9.46973L18.1895 4.75H14C13.5858 4.75 13.25 4.41421 13.25 4C13.25 3.58579 13.5858 3.25 14 3.25H19C19.9665 3.25 20.75 4.0335 20.75 5V10C20.75 10.4142 20.4142 10.75 20 10.75C19.5858 10.75 19.25 10.4142 19.25 10Z" fill="white"/>
</g>
<defs>
<clipPath id="clip0_2667_2001">
<rect width="24" height="24" fill="white"/>
</clipPath>
</defs>
</svg>
