<svg width="24" height="24" viewBox="0 0 24 24" fill="none" xmlns="http://www.w3.org/2000/svg">
<g clip-path="url(#clip0_2667_2002)">
<path d="M18.2617 20V18.167C16.656 19.7619 14.4228 20.75 12 20.75C7.16751 20.75 3.25 16.8325 3.25 12C3.25 11.5858 3.58579 11.25 4 11.25C4.41421 11.25 4.75 11.5858 4.75 12C4.75 16.0041 7.99594 19.25 12 19.25C14.189 19.25 16.1917 18.2789 17.5371 16.75H15.0117C14.5976 16.7499 14.2617 16.4142 14.2617 16C14.2617 15.5858 14.5976 15.2501 15.0117 15.25H18.2617C19.0901 15.25 19.7617 15.9216 19.7617 16.75V20C19.7617 20.4142 19.4259 20.75 19.0117 20.75C18.5976 20.7499 18.2617 20.4142 18.2617 20ZM19.25 12C19.25 7.99594 16.0041 4.75 12 4.75C9.81099 4.75 7.80827 5.72108 6.46289 7.25H8.75C9.16421 7.25 9.5 7.58579 9.5 8C9.5 8.41421 9.16421 8.75 8.75 8.75H5.75C4.92157 8.75 4.25 8.07843 4.25 7.25V4C4.25 3.58579 4.58579 3.25 5 3.25C5.41421 3.25 5.75 3.58579 5.75 4V5.82129C7.35489 4.2332 9.58312 3.25 12 3.25C16.8325 3.25 20.75 7.16751 20.75 12C20.75 12.4142 20.4142 12.75 20 12.75C19.5858 12.75 19.25 12.4142 19.25 12Z" fill="white"/>
</g>
<defs>
<clipPath id="clip0_2667_2002">
<rect width="24" height="24" fill="white"/>
</clipPath>
</defs>
</svg>
