<svg preserveAspectRatio="xMidYMid meet" width="100%" height="100%" overflow="visible" style="display: block;" viewBox="0 0 17.5 17.5" fill="none" xmlns="http://www.w3.org/2000/svg">
<path id="Vector" d="M15.0117 16.75V14.917C13.406 16.5119 11.1728 17.5 8.75 17.5C3.91751 17.5 2.57702e-07 13.5825 0 8.75C0 8.33579 0.335786 8 0.75 8C1.16421 8 1.5 8.33579 1.5 8.75C1.5 12.7541 4.74594 16 8.75 16C10.939 16 12.9417 15.0289 14.2871 13.5H11.7617C11.3476 13.4999 11.0117 13.1642 11.0117 12.75C11.0117 12.3358 11.3476 12.0001 11.7617 12H15.0117C15.8401 12 16.5117 12.6716 16.5117 13.5V16.75C16.5117 17.1642 16.1759 17.5 15.7617 17.5C15.3476 17.4999 15.0117 17.1642 15.0117 16.75ZM16 8.75C16 4.74594 12.7541 1.5 8.75 1.5C6.56099 1.5 4.55827 2.47108 3.21289 4H5.5C5.91421 4 6.25 4.33579 6.25 4.75C6.25 5.16421 5.91421 5.5 5.5 5.5H2.5C1.67157 5.5 1 4.82843 1 4V0.75C1 0.335786 1.33579 0 1.75 0C2.16421 3.2213e-08 2.5 0.335786 2.5 0.75V2.57129C4.10489 0.983205 6.33312 0 8.75 0C13.5825 2.57711e-07 17.5 3.91751 17.5 8.75C17.5 9.16421 17.1642 9.5 16.75 9.5C16.3358 9.5 16 9.16421 16 8.75Z" fill="var(--fill-0, white)"/>
</svg>
