<svg preserveAspectRatio="xMidYMid meet" width="100%" height="100%" overflow="visible" style="display: block;" viewBox="0 0 21.1715 21.1714" fill="none" xmlns="http://www.w3.org/2000/svg">
<path id="Vector" d="M13.3485 0.512485C14.032 -0.170815 15.1396 -0.170842 15.8231 0.512485L20.659 5.34842C21.2996 5.98914 21.3397 7.00296 20.7791 7.69022L20.659 7.82303L7.82309 20.659C7.13973 21.3422 6.0319 21.3421 5.34848 20.659L0.512541 15.823C-0.170878 15.1397 -0.170816 14.0318 0.512541 13.3484L13.3485 0.512485ZM14.7625 1.57303C14.6771 1.48759 14.5452 1.4768 14.4481 1.54081L14.409 1.57303L12.0213 3.96073L13.1161 5.05545C13.4088 5.34834 13.4089 5.82314 13.1161 6.116C12.8232 6.40872 12.3484 6.40873 12.0555 6.116L10.9608 5.02127L8.52133 7.46073L10.6161 9.55545C10.9088 9.84835 10.9089 10.3231 10.6161 10.616C10.3232 10.9087 9.84837 10.9087 9.55551 10.616L7.46078 8.52127L5.02133 10.9607L6.11606 12.0555C6.40881 12.3483 6.40887 12.8231 6.11606 13.116C5.8232 13.4087 5.34838 13.4087 5.05551 13.116L3.96078 12.0213L1.57309 14.409C1.47553 14.5066 1.4755 14.6649 1.57309 14.7625L6.40903 19.5984C6.50666 19.6958 6.66497 19.6959 6.76254 19.5984L19.5985 6.76249C19.696 6.66492 19.6959 6.50658 19.5985 6.40897L14.7625 1.57303Z" fill="var(--fill-0, white)"/>
</svg>
