<svg width="24" height="24" viewBox="0 0 24 24" fill="none" xmlns="http://www.w3.org/2000/svg">
<g clip-path="url(#clip0_2667_2369)">
<path d="M14.7627 1.92701C15.4462 1.24371 16.5538 1.24368 17.2373 1.92701L22.0732 6.76294C22.7138 7.40366 22.7539 8.41748 22.1934 9.10474L22.0732 9.23755L9.2373 22.0735C8.55395 22.7567 7.44611 22.7566 6.76269 22.0735L1.92676 17.2376C1.24334 16.5542 1.2434 15.4463 1.92676 14.7629L14.7627 1.92701ZM16.1768 2.98755C16.0913 2.90211 15.9594 2.89132 15.8623 2.95533L15.8232 2.98755L13.4355 5.37525L14.5303 6.46997C14.823 6.76286 14.8231 7.23766 14.5303 7.53052C14.2374 7.82324 13.7626 7.82326 13.4697 7.53052L12.375 6.43579L9.93554 8.87525L12.0303 10.97C12.323 11.2629 12.3231 11.7377 12.0303 12.0305C11.7374 12.3232 11.2626 12.3233 10.9697 12.0305L8.875 9.93579L6.43555 12.3752L7.53027 13.47C7.82302 13.7629 7.82309 14.2377 7.53027 14.5305C7.23742 14.8232 6.76259 14.8233 6.46973 14.5305L5.375 13.4358L2.9873 15.8235C2.88975 15.9211 2.88971 16.0794 2.9873 16.177L7.82324 21.0129C7.92087 21.1103 8.07919 21.1104 8.17676 21.0129L21.0127 8.17701C21.1102 8.07944 21.1101 7.9211 21.0127 7.82349L16.1768 2.98755Z" fill="white"/>
</g>
<defs>
<clipPath id="clip0_2667_2369">
<rect width="24" height="24" fill="white"/>
</clipPath>
</defs>
</svg>
