<svg preserveAspectRatio="xMidYMid meet" width="100%" height="100%" overflow="visible" style="display: block;" viewBox="0 0 19.9998 17.5" fill="none" xmlns="http://www.w3.org/2000/svg">
<path id="Vector" d="M6 13.75C6 12.5074 4.99264 11.5 3.75 11.5C2.50736 11.5 1.5 12.5074 1.5 13.75C1.5 14.9926 2.50736 16 3.75 16C4.99264 16 6 14.9926 6 13.75ZM6 3.75C6 2.50736 4.99264 1.5 3.75 1.5C2.50736 1.5 1.5 2.50736 1.5 3.75C1.5 4.99264 2.50736 6 3.75 6C4.99264 6 6 4.99264 6 3.75ZM10.5 10.9707C10.5001 11.4581 10.784 11.9012 11.2266 12.1055L15.417 14.0391C15.8551 14.2412 16.3706 14.1731 16.7412 13.8643L17.8154 12.9678L10.5 9.94043V10.9707ZM10.5 7.55859L17.8154 4.53125L16.7412 3.63574C16.3706 3.32688 15.8551 3.25879 15.417 3.46094L11.2266 5.39453C10.784 5.5988 10.5001 6.04188 10.5 6.5293V7.55859ZM7.5 3.75C7.5 4.86582 7.01173 5.86678 6.23828 6.55371L9 7.69629V6.5293C9.00014 5.45684 9.62392 4.48267 10.5977 4.0332L14.7881 2.09863C15.7518 1.65382 16.8857 1.80387 17.7012 2.4834L19.7305 4.17383C19.9321 4.34195 20.0308 4.60375 19.9912 4.86328C19.9516 5.12269 19.7796 5.34296 19.5371 5.44336L11.5449 8.75L19.5371 12.0566C19.7796 12.157 19.9516 12.3773 19.9912 12.6367C20.0308 12.8963 19.9321 13.158 19.7305 13.3262L17.7012 15.0166C16.8857 15.6961 15.7519 15.8462 14.7881 15.4014L10.5977 13.4668C9.62392 13.0173 9.00014 12.0432 9 10.9707V9.80273L6.23828 10.9453C7.01201 11.6323 7.5 12.6339 7.5 13.75C7.5 15.8211 5.82107 17.5 3.75 17.5C1.67893 17.5 5.15405e-07 15.8211 0 13.75C0 11.6789 1.67893 10 3.75 10C3.99553 10 4.23541 10.0243 4.46777 10.0693L4.46289 10.0566L7.62012 8.75L4.46289 7.44336L4.46777 7.42969C4.23535 7.47476 3.99559 7.5 3.75 7.5C1.67893 7.5 1.28851e-07 5.82107 0 3.75C0 1.67893 1.67893 0 3.75 0C5.82107 0 7.5 1.67893 7.5 3.75Z" fill="var(--fill-0, white)"/>
</svg>
