<svg width="24" height="24" viewBox="0 0 24 24" fill="none" xmlns="http://www.w3.org/2000/svg">
<g clip-path="url(#clip0_2667_2000)">
<path d="M8.25 17C8.25 15.7574 7.24264 14.75 6 14.75C4.75736 14.75 3.75 15.7574 3.75 17C3.75 18.2426 4.75736 19.25 6 19.25C7.24264 19.25 8.25 18.2426 8.25 17ZM8.25 7C8.25 5.75736 7.24264 4.75 6 4.75C4.75736 4.75 3.75 5.75736 3.75 7C3.75 8.24264 4.75736 9.25 6 9.25C7.24264 9.25 8.25 8.24264 8.25 7ZM12.75 14.2207C12.7501 14.7081 13.034 15.1512 13.4766 15.3555L17.667 17.2891C18.1051 17.4912 18.6206 17.4231 18.9912 17.1143L20.0654 16.2178L12.75 13.1904V14.2207ZM12.75 10.8086L20.0654 7.78125L18.9912 6.88574C18.6206 6.57688 18.1051 6.50879 17.667 6.71094L13.4766 8.64453C13.034 8.8488 12.7501 9.29188 12.75 9.7793V10.8086ZM9.75 7C9.75 8.11582 9.26173 9.11678 8.48828 9.80371L11.25 10.9463V9.7793C11.2501 8.70684 11.8739 7.73267 12.8477 7.2832L17.0381 5.34863C18.0018 4.90382 19.1357 5.05387 19.9512 5.7334L21.9805 7.42383C22.1821 7.59195 22.2808 7.85375 22.2412 8.11328C22.2016 8.37269 22.0296 8.59296 21.7871 8.69336L13.7949 12L21.7871 15.3066C22.0296 15.407 22.2016 15.6273 22.2412 15.8867C22.2808 16.1463 22.1821 16.408 21.9805 16.5762L19.9512 18.2666C19.1357 18.9461 18.0019 19.0962 17.0381 18.6514L12.8477 16.7168C11.8739 16.2673 11.2501 15.2932 11.25 14.2207V13.0527L8.48828 14.1953C9.26201 14.8823 9.75 15.8839 9.75 17C9.75 19.0711 8.07107 20.75 6 20.75C3.92893 20.75 2.25 19.0711 2.25 17C2.25 14.9289 3.92893 13.25 6 13.25C6.24553 13.25 6.48541 13.2743 6.71777 13.3193L6.71289 13.3066L9.87012 12L6.71289 10.6934L6.71777 10.6797C6.48535 10.7248 6.24559 10.75 6 10.75C3.92893 10.75 2.25 9.07107 2.25 7C2.25 4.92893 3.92893 3.25 6 3.25C8.07107 3.25 9.75 4.92893 9.75 7Z" fill="white"/>
</g>
<defs>
<clipPath id="clip0_2667_2000">
<rect width="24" height="24" fill="white"/>
</clipPath>
</defs>
</svg>
