<svg width="24" height="24" viewBox="0 0 24 24" fill="none" xmlns="http://www.w3.org/2000/svg">
<g clip-path="url(#clip0_2667_1996)">
<path d="M19.8212 4.85727C19.8212 4.4825 19.5172 4.17856 19.1424 4.17856H12.7499V6.10727H13.286C13.7001 6.10742 14.036 6.44315 14.036 6.85727C14.0359 7.27133 13.7 7.60712 13.286 7.60727H12.7499V9.53598H13.286C13.7001 9.53613 14.036 9.87186 14.036 10.286C14.0358 10.7 13.7 11.0358 13.286 11.036H12.7499V12.9647H13.286C13.7001 12.9648 14.036 13.3006 14.036 13.7147C14.0358 14.1286 13.6999 14.4645 13.286 14.4647H12.7499V16.3924H13.286C13.6999 16.3926 14.0358 16.7285 14.036 17.1424C14.036 17.5565 13.7001 17.8923 13.286 17.8924H12.7499V19.8211H19.1424C19.5172 19.8211 19.8212 19.5172 19.8212 19.1424V4.85727ZM4.17857 19.1424C4.17857 19.5172 4.48252 19.8211 4.85728 19.8211H11.2499V17.8924H10.7147C10.3005 17.8924 9.96471 17.5566 9.96471 17.1424C9.96493 16.7284 10.3006 16.3924 10.7147 16.3924H11.2499V14.4647H10.7147C10.3006 14.4647 9.96493 14.1287 9.96471 13.7147C9.96471 13.3005 10.3005 12.9647 10.7147 12.9647H11.2499V11.036H10.7147C10.3006 11.036 9.96486 10.7001 9.96471 10.286C9.96471 9.87177 10.3005 9.53598 10.7147 9.53598H11.2499V7.60727H10.7147C10.3005 7.60727 9.96478 7.27142 9.96471 6.85727C9.96471 6.44306 10.3005 6.10727 10.7147 6.10727H11.2499V4.17856H4.85728C4.48253 4.17856 4.17857 4.48251 4.17857 4.85727V19.1424ZM21.3212 19.1424C21.3212 20.3456 20.3457 21.3211 19.1424 21.3211H4.85728C3.65411 21.3211 2.67857 20.3456 2.67857 19.1424V4.85727C2.67857 3.65408 3.6541 2.67856 4.85728 2.67856H19.1424C20.3457 2.67856 21.3212 3.65409 21.3212 4.85727V19.1424Z" fill="white"/>
</g>
<defs>
<clipPath id="clip0_2667_1996">
<rect width="24" height="24" fill="white"/>
</clipPath>
</defs>
</svg>
