<svg preserveAspectRatio="xMidYMid meet" width="100%" height="100%" overflow="visible" style="display: block;" viewBox="0 0 18.6426 18.6426" fill="none" xmlns="http://www.w3.org/2000/svg">
<path id="Vector" d="M17.1426 2.17871C17.1426 1.80394 16.8386 1.5 16.4639 1.5H10.0713V3.42871H10.6074C11.0215 3.42886 11.3574 3.76459 11.3574 4.17871C11.3573 4.59277 11.0215 4.92856 10.6074 4.92871H10.0713V6.85742H10.6074C11.0215 6.85757 11.3574 7.1933 11.3574 7.60742C11.3573 8.02141 11.0214 8.35727 10.6074 8.35742H10.0713V10.2861H10.6074C11.0215 10.2863 11.3574 10.622 11.3574 11.0361C11.3572 11.4501 11.0214 11.786 10.6074 11.7861H10.0713V13.7139H10.6074C11.0214 13.714 11.3572 14.0499 11.3574 14.4639C11.3574 14.878 11.0215 15.2137 10.6074 15.2139H10.0713V17.1426H16.4639C16.8387 17.1426 17.1426 16.8387 17.1426 16.4639V2.17871ZM1.5 16.4639C1.5 16.8386 1.80394 17.1426 2.17871 17.1426H8.57129V15.2139H8.03613C7.62192 15.2139 7.28613 14.8781 7.28613 14.4639C7.28636 14.0498 7.62206 13.7139 8.03613 13.7139H8.57129V11.7861H8.03613C7.62206 11.7861 7.28636 11.4502 7.28613 11.0361C7.28613 10.6219 7.62192 10.2861 8.03613 10.2861H8.57129V8.35742H8.03613C7.62201 8.35742 7.28628 8.02151 7.28613 7.60742C7.28613 7.19321 7.62192 6.85742 8.03613 6.85742H8.57129V4.92871H8.03613C7.62197 4.92871 7.28621 4.59286 7.28613 4.17871C7.28613 3.7645 7.62192 3.42871 8.03613 3.42871H8.57129V1.5H2.17871C1.80395 1.5 1.5 1.80395 1.5 2.17871V16.4639ZM18.6426 16.4639C18.6426 17.6671 17.6671 18.6426 16.4639 18.6426H2.17871C0.975536 18.6426 0 17.6671 0 16.4639V2.17871C0 0.975526 0.975526 0 2.17871 0H16.4639C17.6671 0 18.6426 0.975536 18.6426 2.17871V16.4639Z" fill="var(--fill-0, white)"/>
</svg>
