<svg preserveAspectRatio="xMidYMid meet" width="100%" height="100%" overflow="visible" style="display: block;" viewBox="0 0 16 20" fill="none" xmlns="http://www.w3.org/2000/svg">
<path id="Vector" d="M0 18.25V9.75C0 8.78348 0.783516 8 1.75 8H3.75C4.16421 8 4.5 8.33579 4.5 8.75C4.5 9.16421 4.16421 9.5 3.75 9.5H1.75C1.61192 9.5 1.5 9.61192 1.5 9.75V18.25C1.5 18.3881 1.61192 18.5 1.75 18.5H14.25C14.3881 18.5 14.5 18.3881 14.5 18.25V9.75C14.5 9.61191 14.3881 9.5 14.25 9.5H12.25C11.8358 9.5 11.5 9.16421 11.5 8.75C11.5 8.33579 11.8358 8 12.25 8H14.25C15.2165 8 16 8.78349 16 9.75V18.25C16 19.2165 15.2165 20 14.25 20H1.75C0.783516 20 0 19.2165 0 18.25ZM7.25 12.25V2.63574L4.29492 5.76465C4.01051 6.06579 3.53649 6.07933 3.23535 5.79492C2.93421 5.51051 2.92067 5.03649 3.20508 4.73535L7.45508 0.235352L7.51074 0.181641C7.64618 0.0650392 7.81959 0 8 0C8.20635 0 8.40324 0.0853349 8.54492 0.235352L12.7949 4.73535C13.0793 5.03649 13.0658 5.51051 12.7646 5.79492C12.4635 6.07933 11.9895 6.06579 11.7051 5.76465L8.75 2.63574V12.25C8.75 12.6642 8.41421 13 8 13C7.58579 13 7.25 12.6642 7.25 12.25Z" fill="var(--fill-0, white)"/>
</svg>
