<svg width="24" height="24" viewBox="0 0 24 24" fill="none" xmlns="http://www.w3.org/2000/svg">
<g clip-path="url(#clip0_2663_1617)">
<path d="M4 19.25V10.75C4 9.78348 4.78352 9 5.75 9H7.75C8.16421 9 8.5 9.33579 8.5 9.75C8.5 10.1642 8.16421 10.5 7.75 10.5H5.75C5.61192 10.5 5.5 10.6119 5.5 10.75V19.25C5.5 19.3881 5.61192 19.5 5.75 19.5H18.25C18.3881 19.5 18.5 19.3881 18.5 19.25V10.75C18.5 10.6119 18.3881 10.5 18.25 10.5H16.25C15.8358 10.5 15.5 10.1642 15.5 9.75C15.5 9.33579 15.8358 9 16.25 9H18.25C19.2165 9 20 9.78349 20 10.75V19.25C20 20.2165 19.2165 21 18.25 21H5.75C4.78352 21 4 20.2165 4 19.25ZM11.25 13.25V3.63574L8.29492 6.76465C8.01051 7.06579 7.53649 7.07933 7.23535 6.79492C6.93421 6.51051 6.92067 6.03649 7.20508 5.73535L11.4551 1.23535L11.5107 1.18164C11.6462 1.06504 11.8196 1 12 1C12.2063 1 12.4032 1.08533 12.5449 1.23535L16.7949 5.73535C17.0793 6.03649 17.0658 6.51051 16.7646 6.79492C16.4635 7.07933 15.9895 7.06579 15.7051 6.76465L12.75 3.63574V13.25C12.75 13.6642 12.4142 14 12 14C11.5858 14 11.25 13.6642 11.25 13.25Z" fill="white"/>
</g>
<defs>
<clipPath id="clip0_2663_1617">
<rect width="24" height="24" fill="white"/>
</clipPath>
</defs>
</svg>
