<svg preserveAspectRatio="xMidYMid meet" width="100%" height="100%" overflow="visible" style="display: block;" viewBox="0 0 18 18" fill="none" xmlns="http://www.w3.org/2000/svg">
<path id="Vector" d="M16.5 6.25V2.56055L10.0605 9L16.5 15.4395V11.75C16.5 11.3358 16.8358 11 17.25 11C17.6642 11 18 11.3358 18 11.75V17.25C18 17.6642 17.6642 18 17.25 18H11.75C11.3358 18 11 17.6642 11 17.25C11 16.8358 11.3358 16.5 11.75 16.5H15.4395L8.68945 9.75H0.75C0.335786 9.75 0 9.41421 0 9C0 8.58579 0.335786 8.25 0.75 8.25H8.68945L15.4395 1.5H11.75C11.3358 1.5 11 1.16421 11 0.75C11 0.335786 11.3358 0 11.75 0H17.25C17.6642 0 18 0.335786 18 0.75V6.25C18 6.66421 17.6642 7 17.25 7C16.8358 7 16.5 6.66421 16.5 6.25Z" fill="var(--fill-0, white)"/>
</svg>
