<svg width="24" height="24" viewBox="0 0 24 24" fill="none" xmlns="http://www.w3.org/2000/svg">
<g clip-path="url(#clip0_2667_1997)">
<path d="M9.536 20.5711V12.8573C9.536 12.4431 9.87178 12.1073 10.286 12.1073C10.7001 12.1074 11.036 12.4431 11.036 12.8573V20.5711C11.036 20.9853 10.7001 21.321 10.286 21.3211C9.87178 21.3211 9.536 20.9853 9.536 20.5711ZM12.9647 20.5711V12.8573C12.9647 12.4431 13.3005 12.1073 13.7147 12.1073C14.1287 12.1075 14.4647 12.4432 14.4647 12.8573V20.5711C14.4647 20.9852 14.1287 21.3209 13.7147 21.3211C13.3005 21.3211 12.9647 20.9853 12.9647 20.5711ZM16.9647 20.5711V10.5858C15.4106 10.433 14.1213 9.38506 13.619 7.96469C13.481 7.57415 13.6855 7.14472 14.076 7.00668C14.4665 6.86888 14.8951 7.07427 15.0331 7.46469C15.3718 8.42263 16.2856 9.10727 17.3573 9.10727C18.7182 9.10719 19.8212 8.00336 19.8212 6.64243C19.8209 5.28169 18.718 4.17863 17.3573 4.17856H6.64244C5.28179 4.17878 4.1788 5.28177 4.17857 6.64243C4.17857 8.00327 5.28165 9.10704 6.64244 9.10727C7.71405 9.10727 8.62787 8.42258 8.96666 7.46469C9.1047 7.07415 9.53413 6.86865 9.92467 7.00668C10.315 7.14483 10.5197 7.57425 10.3817 7.96469C9.87956 9.38496 8.58988 10.4328 7.036 10.5858V20.5711C7.036 20.9853 6.70009 21.321 6.286 21.3211C5.87178 21.3211 5.536 20.9853 5.536 20.5711V10.4491C3.88543 9.9699 2.67857 8.44753 2.67857 6.64243C2.6788 4.45334 4.45336 2.67878 6.64244 2.67856H17.3573C19.5464 2.67863 21.3209 4.45324 21.3212 6.64243C21.3212 8.4472 20.1148 9.96863 18.4647 10.4481V20.5711C18.4647 20.9852 18.1287 21.3209 17.7147 21.3211C17.3005 21.3211 16.9647 20.9853 16.9647 20.5711Z" fill="white"/>
</g>
<defs>
<clipPath id="clip0_2667_1997">
<rect width="24" height="24" fill="white"/>
</clipPath>
</defs>
</svg>
