<svg preserveAspectRatio="xMidYMid meet" width="100%" height="100%" overflow="visible" style="display: block;" viewBox="0 0 18.6426 18.6426" fill="none" xmlns="http://www.w3.org/2000/svg">
<path id="Vector" d="M6.85742 17.8926V10.1787C6.85742 9.7645 7.19321 9.42871 7.60742 9.42871C8.02151 9.42886 8.35742 9.76459 8.35742 10.1787V17.8926C8.35742 18.3067 8.02151 18.6424 7.60742 18.6426C7.19321 18.6426 6.85742 18.3068 6.85742 17.8926ZM10.2861 17.8926V10.1787C10.2861 9.7645 10.6219 9.42871 11.0361 9.42871C11.4502 9.42894 11.7861 9.76464 11.7861 10.1787V17.8926C11.7861 18.3067 11.4502 18.6424 11.0361 18.6426C10.6219 18.6426 10.2861 18.3068 10.2861 17.8926ZM14.2861 17.8926V7.90723C12.732 7.75445 11.4427 6.7065 10.9404 5.28613C10.8024 4.8956 11.0069 4.46616 11.3975 4.32812C11.7879 4.19032 12.2165 4.39571 12.3545 4.78613C12.6933 5.74407 13.6071 6.42871 14.6787 6.42871C16.0396 6.42864 17.1426 5.3248 17.1426 3.96387C17.1424 2.60313 16.0394 1.50008 14.6787 1.5H3.96387C2.60321 1.50023 1.50023 2.60321 1.5 3.96387C1.5 5.32471 2.60307 6.42848 3.96387 6.42871C5.03548 6.42871 5.9493 5.74402 6.28809 4.78613C6.42612 4.3956 6.85556 4.19009 7.24609 4.32812C7.63644 4.46627 7.84113 4.89569 7.70312 5.28613C7.20098 6.70641 5.91131 7.7542 4.35742 7.90723V17.8926C4.35742 18.3067 4.02151 18.6424 3.60742 18.6426C3.19321 18.6426 2.85742 18.3068 2.85742 17.8926V7.77051C1.20686 7.29134 0 5.76897 0 3.96387C0.000226102 1.77479 1.77479 0.000226102 3.96387 0H14.6787C16.8679 7.576e-05 18.6424 1.77468 18.6426 3.96387C18.6426 5.76864 17.4362 7.29007 15.7861 7.76953V17.8926C15.7861 18.3067 15.4502 18.6424 15.0361 18.6426C14.6219 18.6426 14.2861 18.3068 14.2861 17.8926Z" fill="var(--fill-0, white)"/>
</svg>
