<svg preserveAspectRatio="xMidYMid meet" width="100%" height="100%" overflow="visible" style="display: block;" viewBox="0 0 21.5 16.5" fill="none" xmlns="http://www.w3.org/2000/svg">
<path id="Vector" d="M4.92676 15.75V7.5H0.75C0.335786 7.5 0 7.16421 0 6.75C0 6.33579 0.335786 6 0.75 6H5.65723C5.66372 5.99983 5.67022 5.99902 5.67676 5.99902C5.68329 5.99902 5.68979 5.99983 5.69629 6H10.75C11.1642 6 11.5 6.33579 11.5 6.75C11.5 7.16421 11.1642 7.5 10.75 7.5H6.42676V15.75C6.42676 16.1642 6.09097 16.5 5.67676 16.5C5.26254 16.5 4.92676 16.1642 4.92676 15.75ZM14 15.75V1.5H8.75C8.33579 1.5 8 1.16421 8 0.75C8 0.335786 8.33579 0 8.75 0H20.75C21.1642 0 21.5 0.335786 21.5 0.75C21.5 1.16421 21.1642 1.5 20.75 1.5H15.5V15.75C15.5 16.1642 15.1642 16.5 14.75 16.5C14.3358 16.5 14 16.1642 14 15.75Z" fill="var(--fill-0, white)"/>
</svg>
