<svg width="24" height="24" viewBox="0 0 24 24" fill="none" xmlns="http://www.w3.org/2000/svg">
<path d="M6.17676 20V11.75H2C1.58579 11.75 1.25 11.4142 1.25 11C1.25 10.5858 1.58579 10.25 2 10.25H6.90723C6.91372 10.2498 6.92022 10.249 6.92676 10.249C6.93329 10.249 6.93979 10.2498 6.94629 10.25H12C12.4142 10.25 12.75 10.5858 12.75 11C12.75 11.4142 12.4142 11.75 12 11.75H7.67676V20C7.67676 20.4142 7.34097 20.75 6.92676 20.75C6.51254 20.75 6.17676 20.4142 6.17676 20ZM15.25 20V5.75H10C9.58579 5.75 9.25 5.41421 9.25 5C9.25 4.58579 9.58579 4.25 10 4.25H22C22.4142 4.25 22.75 4.58579 22.75 5C22.75 5.41421 22.4142 5.75 22 5.75H16.75V20C16.75 20.4142 16.4142 20.75 16 20.75C15.5858 20.75 15.25 20.4142 15.25 20Z" fill="white"/>
</svg>
