<svg width="24" height="24" viewBox="0 0 24 24" fill="none" xmlns="http://www.w3.org/2000/svg">
<g clip-path="url(#clip0_2667_2163)">
<path d="M17.2197 5.71973C17.5126 5.42684 17.9874 5.42684 18.2803 5.71973C18.5732 6.01262 18.5732 6.48738 18.2803 6.78028L13.0606 12L18.2803 17.2197C18.5732 17.5126 18.5732 17.9874 18.2803 18.2803C17.9874 18.5732 17.5126 18.5732 17.2197 18.2803L12 13.0606L6.78028 18.2803C6.48738 18.5732 6.01262 18.5732 5.71973 18.2803C5.42684 17.9874 5.42684 17.5126 5.71973 17.2197L10.9395 12L5.71973 6.78028C5.42684 6.48738 5.42684 6.01262 5.71973 5.71973C6.01262 5.42684 6.48738 5.42684 6.78028 5.71973L12 10.9395L17.2197 5.71973Z" fill="white"/>
</g>
<defs>
<clipPath id="clip0_2667_2163">
<rect width="24" height="24" fill="white"/>
</clipPath>
</defs>
</svg>
