<svg preserveAspectRatio="xMidYMid meet" width="100%" height="100%" overflow="visible" style="display: block;" viewBox="0 0 12.9999 12.9999" fill="none" xmlns="http://www.w3.org/2000/svg">
<path id="Vector" d="M11.7197 0.21967C12.0126 -0.0732233 12.4873 -0.0732233 12.7802 0.21967C13.0731 0.512563 13.0731 0.987324 12.7802 1.28022L7.56049 6.49994L12.7802 11.7197C13.0731 12.0126 13.0731 12.4873 12.7802 12.7802C12.4873 13.0731 12.0126 13.0731 11.7197 12.7802L6.49994 7.56049L1.28022 12.7802C0.987324 13.0731 0.512563 13.0731 0.21967 12.7802C-0.0732233 12.4873 -0.0732233 12.0126 0.21967 11.7197L5.4394 6.49994L0.21967 1.28022C-0.0732233 0.987324 -0.0732233 0.512563 0.21967 0.21967C0.512563 -0.0732233 0.987324 -0.0732233 1.28022 0.21967L6.49994 5.4394L11.7197 0.21967Z" fill="var(--fill-0, white)"/>
</svg>
