<svg preserveAspectRatio="none" width="100%" height="100%" overflow="visible" style="display: block;" viewBox="0 0 10 10" fill="none" xmlns="http://www.w3.org/2000/svg">
<g id="Octagram Spiral" clip-path="url(#clip0_0_120)">
<path id="Vector_2" d="M4.9637 5.02569L3.88802 3.94978H2.35885L3.43476 5.02569L2.47619 5.98426H3.88802V7.61449L4.9637 6.5388L5.95471 7.52982V6.22301H7.55276L6.42825 5.0985L7.57696 3.94978H6.08038V2.51779L4.9637 3.63447L2.8603 1.53108V2.84139H1.03223V3.94978L2.03942 4.95697L1.12934 5.86705V7.11291H2.73116V9.08687H3.76668L4.77793 8.07562L5.78917 9.08687H6.98649V7.27471H8.94427V5.98426L7.91699 4.95697L8.92418 3.94978V3.05173H7.18065V0.786538H6.33929L5.1177 2.00813L3.88802 0.778439" stroke="var(--stroke-0, #BABFC4)" stroke-width="0.5" stroke-linecap="round" stroke-linejoin="round"/>
<path id="Vector_3" d="M1.93858 0.818897V1.7088H1M1 8.09989H1.71182V9.07069M8.05437 9.07069V8.37495H8.94427M8.94427 1.96768H8.31325V0.818897" stroke="var(--stroke-0, #BABFC4)" stroke-width="0.5" stroke-linecap="round" stroke-linejoin="round"/>
</g>
<defs>
<clipPath id="clip0_0_120">
<rect width="10" height="10" fill="white"/>
</clipPath>
</defs>
</svg>
