<svg preserveAspectRatio="none" width="100%" height="100%" overflow="visible" style="display: block;" viewBox="0 0 20 20" fill="none" xmlns="http://www.w3.org/2000/svg">
<g id="Vector">
<path d="M7.9541 20H6.54004L0 13.46V12.0459L7.9541 20Z" fill="var(--fill-0, #BFBFBF)"/>
<path d="M12.1963 20H10.7822L0 9.21777V7.80371L12.1963 20Z" fill="var(--fill-0, #BFBFBF)"/>
<path d="M16.416 19.9775C16.2792 19.9917 16.1405 20 16 20H15.0244L0 4.97559V4C0 3.85918 0.00728702 3.72007 0.0214844 3.58301L16.416 19.9775Z" fill="var(--fill-0, #BFBFBF)"/>
<path d="M3.69922 19.9873C1.72961 19.8408 0.157696 18.2696 0.0117188 16.2998L3.69922 19.9873Z" fill="var(--fill-0, #BFBFBF)"/>
<path d="M19.1475 18.4648C18.9409 18.7282 18.7027 18.9647 18.4375 19.1689L0.830078 1.56152C1.03428 1.29646 1.27095 1.05801 1.53418 0.851562L19.1475 18.4648Z" fill="var(--fill-0, #BFBFBF)"/>
<path d="M20 15.0752V16C20 16.1563 19.9901 16.3103 19.9727 16.4619L3.53711 0.0263672C3.68898 0.00886771 3.84344 0 4 0H4.9248L20 15.0752Z" fill="var(--fill-0, #BFBFBF)"/>
<path d="M20 10.833V12.2471L7.75293 0H9.16699L20 10.833Z" fill="var(--fill-0, #BFBFBF)"/>
<path d="M20 6.59082V8.00488L11.9951 0H13.4092L20 6.59082Z" fill="var(--fill-0, #BFBFBF)"/>
<path d="M16.2461 0.0078125C17.2186 0.0668453 18.0964 0.473992 18.7588 1.10547L18.8945 1.24121C19.5258 1.90333 19.932 2.7808 19.9912 3.75293L16.2461 0.0078125Z" fill="var(--fill-0, #BFBFBF)"/>
</g>
</svg>
